<mxfile host="app.diagrams.net" modified="2022-10-22T03:03:23.877Z" agent="5.0 (Macintosh; Intel Mac OS X 10_15_7) AppleWebKit/537.36 (KHTML, like Gecko) Chrome/106.0.0.0 Safari/537.36" etag="K1XXB_jt3sNmRoAe0KSj" version="20.4.0" type="github">
  <diagram id="W4FAmoJ2Y6cThs5EcYMA" name="ページ1">
    <mxGraphModel dx="519" dy="300" grid="1" gridSize="10" guides="1" tooltips="1" connect="1" arrows="1" fold="1" page="1" pageScale="1" pageWidth="1169" pageHeight="827" math="0" shadow="0">
      <root>
        <mxCell id="0" />
        <mxCell id="1" parent="0" />
        <mxCell id="TcjnYduFdrtGoyZPX38t-1" value="Client" style="shape=umlActor;verticalLabelPosition=bottom;verticalAlign=top;html=1;outlineConnect=0;" vertex="1" parent="1">
          <mxGeometry x="110" y="545" width="30" height="60" as="geometry" />
        </mxCell>
        <mxCell id="TcjnYduFdrtGoyZPX38t-4" value="" style="rounded=0;whiteSpace=wrap;html=1;" vertex="1" parent="1">
          <mxGeometry x="360" y="50" width="480" height="675" as="geometry" />
        </mxCell>
        <mxCell id="TcjnYduFdrtGoyZPX38t-5" value="" style="shape=image;verticalLabelPosition=bottom;labelBackgroundColor=default;verticalAlign=top;aspect=fixed;imageAspect=0;image=data:image/png,iVBORw0KGgoAAAANSUhEUgAAAZUAAAB8CAMAAACWud33AAAAvVBMVEX///8SuNcAtdUAW6wAstRVyeD6//+S2+pkzeOp4u8kvtsAWauk4O7K7vUAUagAuNcATqcAVKlMxN590+bc8fcASqbl9vrz9fkATafT8vfv+vzH0ubt+fw9wdwmZrCZ3Ou85/HL7fUAR6SwwNy05fBwz+SBptDL2+zj7PWVs9fc6PQ5d7oOYa9nlchWisKeutq6zuVtk8ZNf7wsb7bO1+lnlMd8oc2ZtthGfLwAO6EAQqN5os48dLdYhb+tv9zKgDbFAAAQ70lEQVR4nO1da3uiuhbWWNFC5WrxSsWO1ss4rdPu6fScmfb//6yTBFQgKxAgdMNz+n6ZqRJJ8pJ1y8qi1frCF77whf8rTAerhbPudz1V9ezuunftT5R/u09loXRVAH2BhgbUcFF9j6N9GCy6BgpgtDFOf6jr68mn9kQyFBu1GaCuQMMrtl0b9arv8QnzVZcQAPSCdATT1F9NP683cqHYRhNZmV7bXEYizHRXzRRmjWRl2Q8lVhbwZevlp3RJLprHinKtZq2SODGeX32nJKNxrNy0c1BCYTSPl4axslLzchLwYjfLJGsUKxPIYBQCQk6T9H6DWFF6efQJ0zXVr7BvktEcViZeCU5o59bz6nonF41h5cYQsoVTaVEHlXVPLhrCirIuuVDC/n1uRKgwmsGKW1jNJzu4boTSbwQrk0L2MExLtwm0NIEVv7xKiXTRbkDMsgGsrCRyQmmpvylWf1ZW0qTXqZOeK7+XclF7Vny5K4X2svZCrO6sLOWT0gCVX3NWhmoVrGADWXI/JaPerEyFoixkt96gaQQGuhLbD6u5O1lvVvrZpCDU7jrXw/l8Op3OXXe46nVVAWauah18qTUriyxSEPKcJWPozieLbnp4GRm9Wiv8OrOSpenJpjxPbQ8dg88Lsocy+ykfNWZF8VJZQYaT6nfMFzylVP8dsBqz4qQJIYTSOaFdXEDrxTBWEjtZDerLyiRtpaCukAxyWXMBqdwtfKXgEpLf7lNYIbYRhuueukH/jAJ47lOC94ZxIzJqAj+REgOGWxTX7/W7tm13+85i4ApP8nTo95w+bmf3nd5SPI6juMuFQ2/YX/dWLmt4KN2KWXFXa1s1AkdCtfu9IemDfYViuGJveJ2irL0cGStuTLsgm5m7ub/2aKIyAf0PtusEiJn6axWdGtJ/7d5QpN3S8VDshl7fT9iR1a4Vd2G3o84D6YS3Xrb6iZsiJt18qvJJyRcvUSJSjF0pgz6Q84c7uciwnF2HbYdHZy8yAtLzHng/1YlJ5CpZWXZBdw73PTnlLCt8VyV/tORiNqgJUgY2N31cTePF5dndBrYMU9oRTjj3Q+sIL9VJsCHfk2NuybDCXyrIye5bEr2wI0Y859hdp/maSL3mDT3NF8LtuDbeTdqeKubzvM6qWivTXlrPmXZJVrhLpVhcMVgtKD7Nq6weoj6owJdZwTnUB8WY281qd05Zq2itZPY8OY7Ej/OWikjPIBDdEidUSXWHktMUwSI7yAamOPkCyQcn/7aatXIjdpDh0i7BCm//0fCKugb4KVGjT/A068ENO8bElgUCpm1mWbYEYnrhRFCtVAkrvVwLpc2ywo21FE7iHrav/MifruhaTliV4NE4CFcJa1RgZQb3o1kFVUgw0R5E2sVZmfAMFWHnkcUqeou5uICNWRfCpCRpEZ8S5E0rWSu5VwrDCmcMRZVKgIjBOs2T9BcVYmJiL8BVRIiJia/TKJUK1kqeHpzbxVnh6XpZ8fd86bHIP7XL97yhsx3u52uHV6fstZKvB6d2MVaWnKVSwFMBcZOziyff04eGnIZwebo5cw/QSjIrC65Nm96PGCucR1KVtH04zN27YDrmBdulxVk5cOVKsEV+TU/bxViBiZW2S5BHOYS3pipCzCaO4op6+flFOura4KcFWTH6eTsQ3jDKCmfBy1oqRXIxyb0HeeUXhoHbufmbwSjMSuEbRlmBNZMsraJ4nD4Y/EoX9OaF2vVSjOJznRNByGclrevtBCvwMJCkagbwUiH5S+ue0/c458aNOazqkaGmtkNTzlJBba/v9NZ2W5wYyaxkDTnBCvxQenJIAa0b7FGfAlfzBRiuQr3klhCBgfqnZ8WFo7GoB2oVpN6c5LEvbAsY3ZaShakwK8hepg85zooCPjyydP0QKiakRtehApqAIJexPdEpuMZVyHQxYtG15CY2F8ZVNsR+KRE/hYccYwUOt8gSYMDUMXubPsgB2y65qSBoRxjJiLJY3q5MiA05ygqs7FU5R4GAHDN2H7Q1ERoZa34MhLKikxuirSIeTSkIDjl6GZhGYZQKgV0wZEgxIIUlEKAARpaaAnK5IRD3LuZ7F4XokKNDBMWzLLuYFTIIDK5lO8MG6D5le6iwghRaZbIgOuQoK+DAkKR8R+bWnB3nTNePc9RikqluOc7wJ8ow4SFHWQENYySpZhETX+L9cFZY2eBsikIBrNj9OLbkJy4W4SFHWQFFrCEniM869jw3iBO3PneYl9SRpVm4A0lvJhPCQ85kpS3n2C+T0MTVV266/uXuiroZIoybeJA/ZloQ4kPOZAWwJotgztyYp6+44bKwHfeoWPrk8m3JAju4xSA+5GxW5Lgr7OPg8y4FIzOXdlxWMtYYlxURo1oKxIdcv7WSobaLsmLYvHafxwp3yGmswKJDjrafMouUe5a4mrXCZ+XzJBhvyKkSDGSlKhsM9NAJGP4S7QqywhfFn6fteUNO1faw6JCU3sKuAM6FUGw52uGirPCirNP0ZlLB6TkTc4myAm6PywoZs56SD1+YIVCKs8JxdKTXEErpAmfIzMRnx8Ek1ZJg9qA4gj7lUFPQn6KstA3YbkkXmFLBGTKb+hNlBczWklV4hd28gZ+cLN1bnBVYrH+aBUa7AA6ZVWzZ+yuSNogZ07gNhg0GWdtexVkBwwIZWkw6gCEDO9lRVjhxOknqHtBabBR3kDmsEqwADkPe5MrSYIcMLdYoK1N4394vTEQMgFZFSRdVoFBcGVbaRuJwS2plgdhdsyH4Q8khwzkfUWELjkuWYoFEWBv1IjHDuUhueClW4jUc4CwMCN71TSZEfys2ZM77B2KswJmjslInwTlH7V7wijZ3uRY6z1mOFfzQ9wfUnZwuHeHi/0IHRcQzj4zTkH2bk5MWYwW2R2SJME7uN+6Y59lqW3COSrJCc+RU2/NE70ebSM6dzBxyjBV4w6nckaII+AIqR9nk0qzkvB+9ZwV5xqldiLECp+nJCoUBaS6ZQEyKfA5WpKWvFGeloIsad63gQJ20Cp75o7Mq43yKs4J6BeKOcHyj+FmvYu9+iLPCiwlJyqhQ8qYqohWTvpuDlUXuxYkW4AyUOFVULPYZZ4XjVEnTLDmnCXeO2Y3Ps1byLk5kwwZPmXORhYKfieAQZ8dJlhmWr4/kqHU5VvKeEnPls1JoUy3BCi9Wp5aoFzmNzmOOQ3E0LbgkK7nSu40BZwJKsaLkPz+YZAUOuqQkzQjAiaWgCvvTBq2TVJKVliv+AhkaJZPPimiJlFi7RHibZzMUT2z1UZxSwRUdVqksy4p4hZKgVGkFrBR4CVeSFW7mYlGnhXj0cbUktKNxKohYmpXWXOhRRe0lv3Olax7l1S3MVhAvGdoolhg2py9BiAdKB9lSBZ3q4pVnRazy1akqZjWstFb53hbMsMI9QEKLz+RFqG0TJ5zmGQowUhRPAivZBcLQJY5bESvZhePi7ZhtU24tqgK0nE2gpLWA54nrusRKi0thpTVPq4xoXI6PVscK/uUcL65jWeGftkJeTiEW0bTJpIzptQdHTBPl3uWwgtUbr9IlQvYqspCrY6U1veE8iuzhfyDFgH/MBqm5VP4gKkwZI05ZrpOlbEl13158r04WK+StCmzlXDwf/XgF5QpZwdesukaCAoO8nGOYltEaIuUAidHmVU8FkHAYDZ+5Yu47nnEqe31leP1wOygC98qIg//6lgxW8O1Wa8+IVqdW+4tkdkOlrJDx3Kxt47KtbNi9yZQshASAdJw0m0X4Rc9soXzw3QWKO7zp9Rynt5oA9dFJ7T07Dn71cTXBH3S4a0oqsq+7QUH2IXDDqlkJhuwvyJAXq1M9/IWTAJCNA+6wn2/UvhGIvoAvlShUJpEpAsG90k2Cb5zwf+QTWCmKdD8P2X4GL4oPO9RVvu5dEmrMSkao1UjnhZhXvHDautavj2rVm5WMs4mYF68Hm2PKxElxRbBxLSmZvCrUmRWBEhHEfFjOY0sGq1KH+1KCM5/1fttarVkR2QchprfddxarwXC4XC2crpo0xmE6a/1mwnqzIljjNmJ6CxZBK1Ov+hNQc1ZyFNvOA2lFeCtCzVkR3y7KRQrvaKAIRtvj0wPBx2aUtAFH21H8g+2WuWIWtH7abBvprwSogJYSr+weHX++mKZu6QTjw/NuH/v2oH2PXf7DMjeJ1jpuTaCPrbfXDacjtWdFPi3FX28/ejiYlqZZunY4HCwd/1fX32eX749mR99Frp+Zmv5wab27I61xc8KrRv5n/v0Ab1R/VmTTUpyUj46udTT95c9sv93uN0+PHUKR+XiWUq9WR7Muq0e5w5efF8/HHWltWX9/PB3/+bZ7J392NPNl02LRAFbk0oL6RcXXrzGeRuvueGm/fbVM07zXj8GfoztywUWG/bE6nc44ZOnVJCRYv84kbD/uyPfa+Im9VRNYKZI1wyWlsPX1qOM51B/jnG5mBP8Ef8zGHXLJaZY3hIeTSHulK+NwjDYevZKf1G5/M/dqBCtFXrTDIUXghPg/bzvg051JZvAtreErefbxagkl2gshpaM9k/8/0fk/7BMtgh8dM0KsIazgfko40YnavsCtZv/9yX44Is96xxyx31wuCWjoWJSH1oNO/+qY21C2dfRvTJt3C+S6Kay0JuWVC/C6Wwize4CV4GF/Pv89SgB/tKECDE+/SWTYHssvypL+mxpn+Ju/rEbbky86t0mvpjGskCSzUrwgQ7C+xez+NXQHw9cEkn+odLLOZu7zbRz/warlgQowsmCsEZVf2uGOkPEefmUBZLcok+Yx8WmDWOEddRUkpStaYmw2fv51+9/OR2vz8oyn93hHuPhJ5/U1vAQvhDPoAsH2sPKX6PPvG/z0W++tnU70PmFD07eBNWb9AG5maU1npdW6yfPC1ljHkmfcUzAzLf3xR+f2ODqMsYv4857M2Y5KsLvTNa93Z2hUj29b+3Fgcf2wyD94trWX1oawoX+0PnSOqTC6pRIsqa6axQo5nF7kIEbqK5uTmJnEmt1Yb62f5h+sqA9kzrZ0+swZc/WOLoPHgDfN2rRGhCbqqWxaSif4cktVjM5p3WBtf4Lbz8sLQk6u+ogzU8M8YIG03dy+KPv7R/op9S06WlIvH6kIwmQob1q4mD7GgSlGxN0jEWFYzTzo4YqKg66vzm1jLeMIJqmvzE7ASGRBCmA2fqGsWNvRi7nf3Qf27OjFAlwOSopGzKytflYdb1Tta8RI+KaHaoN+pt3FW+/pEho/tJJoICspiahMf5C3yh31mo2JzNp2OtvW6/jPYyd8wEd/A0/84aIE9o/U4jWJ1/mbuv5UbW9JaCbQ4HtiDRDja/RGnXv99bJcRq/kOm38h+1CI1nBmCzUjFoyJDF1UeS4C9Yr+On9aWLnZKMfDheh/4OGUCzz19Nmv98fd9/H1MS6o/P/TL47BIztdM0Km32nNhr5+EEnFoBlPj4dSevfj7e0tZa0vwiaygrGcNVvw8yQHeN297rgCSSsV8zDQdextFe+a3okeLh508NQ/HhsmmSSNb3zQL2aLRVlJy/zzjo5hruTCCMr69J6HMTydesBjBY0mBWCoe94TDUm1XZWJc7mz+7f3009CCTipz6mCvYPB0vXLTq75D/P30J//fe9ruv3JwYDZ59gM8af34b+4373Qhppp9ZvH5wITglWgOpUyfeHfw6mw4G/CuFPpNSj3odcPJmM1bo97n49vry8Pb5+RLYSZ98wPpI2Fp4m8vm3Y6T17x/vYWt+UG2lQhDZ155AkFOiuy446uYtvFn4hX8Px84LsCX1hS984QtfaAr+B9LVU/2HxBeWAAAAAElFTkSuQmCC;" vertex="1" parent="1">
          <mxGeometry x="405" y="640" width="241.69" height="74" as="geometry" />
        </mxCell>
        <mxCell id="TcjnYduFdrtGoyZPX38t-6" value="VPS Service" style="text;html=1;strokeColor=none;fillColor=none;align=center;verticalAlign=middle;whiteSpace=wrap;rounded=0;" vertex="1" parent="1">
          <mxGeometry x="646.69" y="684" width="148.31" height="30" as="geometry" />
        </mxCell>
        <mxCell id="TcjnYduFdrtGoyZPX38t-7" value="" style="rounded=0;whiteSpace=wrap;html=1;" vertex="1" parent="1">
          <mxGeometry x="385" y="520" width="430" height="110" as="geometry" />
        </mxCell>
        <mxCell id="TcjnYduFdrtGoyZPX38t-8" value="" style="shape=image;verticalLabelPosition=bottom;labelBackgroundColor=default;verticalAlign=top;aspect=fixed;imageAspect=0;image=data:image/png,iVBORw0KGgoAAAANSUhEUgAAAPUAAADOCAMAAADR0rQ5AAAA81BMVEX///8JnOwGbaUJlOAAaaMAa6QJn/AAaKIJmuny8vIJm+oHe7kGa6IHe7sAZqEAXp0HgMEHdrMGcKr2+vwIitEAYp/s9Pji7vRflrxCirdzosRMkbuOtdAAcKfJ3+u71OOxzuCEqccYfbAIic9NXGSYtMzb6fHD0+KXv9ekyt4Al+sjd6szhbTP4+44fa5nlrxdkrp5rczk8/1nocQAWZuDp8aFtdF2rMunwdZMiLSy0+RRmMCEs9Btu/GVzfWf1fdOsfDD5Pm9wsVmcnqAipCVnaJyvvLh5OVodXukrLA+UFlSYWnM0NI5rO/Q6vuZ0fZ2ut8P1CZRAAAVBklEQVR4nO2dDXvauJaAiZBimoACGJtPGwc6LtSGJMNOQkKm0872dnbvvb2z///XrGRLsmzLxiR8teE8M3lSRZb0WtLR0dGHS6WTnOQkJ9mS2MMMsfVDF213oq+ApRTQMQ9dtt2JvtKAUrSfmxoC0EwJAPBnp26UU9L46amrtcpZUmrVn576klCfn59JPyqXb4K6Uq8R2NqY/lavvBXqcqN6fnZebRDgRrP8dqhRRP2G6vpEfaL+KeVEfaJ+I9RvcryuNQh1k5pltdqbqeu3aYcn5GenLtGZ5sV5Qn7Emabe/a+rwgIBqCrkx/MqBF6h18qPSa2oPrBJ6A9J3Ri3ktIAhUPHhf1m+tF4zUO9fB5Xy+cXtWq1VjC0uDabPLd3jVNQMkejTUKLUbse7ts7Byok3BfWahGAVoswlVsVzheFXrTyQotR+xAg7eEoNEDMtm6C8tl5A5Q5XxTKLe5X2OETTHQhwl1391BrJU5NIM5rzUqCulkWs6uXz7lmIwQCfe8fQSvfF7W+0EB1PKaDOxruAyy/NHuiHmIEGpXzMhn80OGxVdTJfr0N6i4xhqgSLDeJATuf7QMtR/ZU164Bqo1goCNpAjQ68MC9J+o7DKrlM4YNAO7uBS5T9kNtPiLQ5GZNuUmwJ/vBy5A09WVGv37NeD30QLUurLkybeMH7dqc+rJJSC4bhLreiGq1xkMrtWRok7rMWOha6qUmGjiVehXgziGnIoz6okwLVS5f0B/C4s4PPROh66j1HgYNibrSqCJ0SGNFPfugs6vCoeupzT6Kb3JoAaCt9gNothXi9pFqr8lldYNQgG5nqrTFq3AtuVtTIcOXsZ/Ra+J3FeIB0GykpLlRKPJUKfsDQU1MlHFsXt6qAm0/anyAkUpe7zYjRiZUJIx/E9RGaJhJ3YLY47d7ogagmiwa84WRX4L/YqHquEjErebHxdc85ykGzXKMmqhxtB+7dKCB5mU9KbTVpgK3EhpRT9LUpIlbwSQkpgB2Q02Gj4uY0HEH0NEoEVrLCK1uEDeXuky6Re9+cXvrz+f+4+3tw2S4G/aQ+nVj1CbetHxq0kI0TQu7A0QQY8MY3bnbN10GganAbYxK+IPXnxx6kbRH1KFnsdBKIlSua4dQtxLUDaYIuZ89cC/BhbN16qCuQ9uzEdie1IoOqaVQ2fYUoZVUKJAs0tA6r/HQy0YlTp3W4XQKQ3mbjVqtdtloNkN4hK3rLTd0Ri3NrkBE/dLZR0TdbMRCY9QpK4X8vVkfx4ydca0JqOa3hltt5mELX0v9gpnmOuq2D6v1eNevpG08Ak6bPTK2ar4UrOsdUFNXYUKRKqkJN1FyPwt1aYljM81A4ymlRczb5jahD0lte6BaK1DV5drW3SyH69cl/RGB6kWxqva3Oxc7YF1TO0XW4llV3agiuNwq9EGpdTK1i8yziwzoehWg/i7H62Adr5qkTq7uNcXqXjMZGvDJodVGLDROHaztNSr5Vd2iCnzb6yJhvz6r0LyDHxcVMaOIhUa2dRRaWRd6kQhN1PXQQgDVcquaQuPFlqE5ddJG2mhGUTxUojZny75BTW5W2eqqbjWrQOtvffoRtPDUbjFSZuUesuqlOvSscGhArc+mg85Io1t+wDgPmton0N/W4vb9iouPQPPyspYQ6hNIhm0nFM0X/blnAQgRZRbtTAldo2u83tYGLQtDJki5cWqzPVYbhSKSJ+nN5BfQrIs5l6KqW3XyVhDc4jaGq214A18swQsgyJI+SSNfNukk03jYnnlCp7aHk+ZljRDHVF1Q1XyvWr1OptZ0fomg52yNOVw4HlM/R1Ld7E0Syp2pa7l7AA12J1tV3jahbpXL5dTQciAJqnosfEbUbW5YC2fL6yBTfFTUoSprBJqOKlio+Q9Dc+uD9JFRh/qL7q1+chxn6u5orYtTp4yygwivagR3u457XNTc3kb+TqEj6ov1Zdq1sFlHrQqws1tqqsPHR0Jdiap6x9szXE59eHXGqrpOplZb9pcoqevHQc0sUGJxd3e+TeEKVGtHQV0RvRoO1hf7lQJR9bJ8BEqcQbeIgWLtfme8z3fbHJg6mkfvWoFTWUHQLB9eiTPoMQCwu4f9dc8aaLYO3rG5K6FRRcDZPXTJIRPs8aGbOIeuUwt8H1spXYhA/dDU3G1CJpfWXnYetX0UDl0HbOLcWURV2cM+oNna8ebUH7cHLdo39f3uaavwEgPQ2rSJfzz//dMfnz5vRe9zaLq2Ye3roMvQYjbpJmPX5y+0TswvW8AWnuAGUWV3+9oV7go7pXgT/6zTE7Tkx6+vxhaLWnTBcr6/84o3EIDyZk3815L+53//6yt5+I9tQQcrOns8yEVXzDcasT/+Xir9+f79P/8kD//6/XXUHDo44vK8P+iSSZeON2niH/8uvfv6/v37f5CH9W+vUuYCmnTqPd/f2UXMKC1Y2R+/lP76H0L9/uv/6q+jFtB0fjna72lcapTWN6hsXtfv//mP19W1gK7Tdaw9n85sj8TZjmIq+XPQr9+//9e/X9WvBfSY7hDd+7m1gcZnIAUr+z8E++vXr/8mOvzFVR3tw2jR5bu9jdRCbI/rs4I9+/uvRI+9I09+SS7OvQSaqu8D3C2idyAfvAqq8e9fggf/2BI0bB7ipJ5NppvNTXr22cfv3z59e/kUJNqQQGeXe3CKKqUPN+vZlPvjy7V3JVbT6FA3SNiG6NnZ2OeV1nacawlo41Dnb4PLHOr5bbwyroKtOFwEczm4PeKAh47dOeLTbDVZuU6MRnYLwKukkoDuHvKk9TOp7Kw2fn7WCvcBYfTKyUYMmlhkAFsHvUJB9yG3S5Obglo1EB6wmd+Zv754rApE3iJ6SfeQrQ58A5Bt0ZOF4xZt5sFmSVotrXG9AcItcdgfUFX795YqukXvysCHv/ZoYNBNP6BJDxMHGysb9BxVsPUPYcNn+4DMz1uwQUMnAjKeD3+jmd6jH65IbIVECGLgPd5Hvc984eh1IVf0Jb3xaOQcDjaSth/c1qeFQng1bKBR/3oa3xrzIhehzEwqmrQg3D/0DThM7GD3bmfkjUbkf3+1GAxnbrrn/b15G49tib0M1ETvWC6uKwU78lfvmGR2uk8bYseY6XlspM2dPWKtkylR5Hjlcu6saBs5UGLM4wbt0ahzDHe3RTKlirxvv8vnNn8vjB1jJsYOtUy86eF1d1ymdKCynHf5zdz8tDkysXYoM7IWBx+k0+J4kIxXz3+t4f60TpNfVBLM9dDA6xz8zjal2CNMSvdol97lgv9xntfKk+cYSD0HzCPnCCs6ELevIQC966i6leD/+a7GvrhIHd0IDk7TDf2TY2WmMrEgVTpL9927HHL9W7yVX9BWnT6s0qo3Q0N+yxv6ty/DLm3l2uMv5ruUSEX/wqu7UlHxBsiNoGlD7C+PxizJFPNeI4YaRP6kneaOxPymQhVSbwRaG0LYdY68npm0ex6tb4wXH9wc7tnvamAyR22yKSrq3h3BzapFxe4BTAZvDXWvnVk291OqvgnxZTBHJdVseD3nuAyxdaLPFpioczL5suaPz8NMblfiHodHsMKzeRj2ne2fVdm9mINbL7wBDBtX/mrg2DPXbZuRkjNNs+3+Zf/fmFZwg8zKEWDA3mPv6CzPwqIPB33CELZXbEDP73Z6vetfmPR6vU63OxpZ0dU9SDOgf73c0XVNexPTHfQNA4d3MVH3iqZpmAn5FSJIQ+ndbSTYwKPFsN3+YWs5Lvakd+vPLYgpprjjLriSir4DZHnzx9vF/fTHUl0FRHdtZ7kkTbrf971QRv1+nzT4wXLpDGc/eJPOFV0PNFgoRLGZ5vF8vOEkJznJSU5ykpOc5CQnOclJTnJAcYdPO3TLk9SPcLatDzzL8qa7Sn1CU3d2lPrLZYmDLVXOjlI3aOp7O35YVPRu8ElU3NuNF2QUeNViV28eg+hhueC27zRlEl4Vp+3onb5YGPXWb3JlcnWiPh45Ue9ATtRHJCfqHciJ+ojkRL0DOVEfkbwR6mDROVpnzqVOxF2Trk7jJiLnU+tZ25JYYllZxR5TZyxHsJ3Bqj8a+f3FZBhuoMimnn2Y9Fb+aNRfPTv2mpbgfljerbo07t0yFjeP2lyuRh0nHd4eLnu0lCTjpZ328ujL7mjFNyi2bZ7xYvJBuSXEXN54GqbXstNDO8jvTXOon3o+wuG+E4ixdzvIqXH7umthHMV9js7s5FDP+khDGkzeomDf9a0oY+txkGDRn0lOGgiu7Jw9P4qMCZl/neaeWghKX4ekn3PzHT7vT1DbPimRHBmizL3Nbh/I6ZK5OgTi2E4mtTmwNPpU4op/d4HiiSEI4mcZP4Tl9UwSF6BExklfld3HqQ9iIoQ7hC9F3X7A6a9nIsNX+YHMAdSSUelRU9YEs6hnPruaHllSQfWJlS4lSUzeWE1v5iJiuKq4yIplNPUUZaMpjrwUtd2F6azpq7TSN8G2F+qPiyIYdgk1tflsQVHOiNrsqW/pR2ARPT8IqdGt4v0QnicpmwGAiijB0+GzErXtZcdN3urRnqtfECUNSqqktkfRU9ATfdHtZmYs3azBqIE6Xyw5e59jFY0UJY2ohzFo+oVX6V/GIlZ8tysljOJxwdVQTe3eSbUEgdBm7VEssXgpcYd3f06diMsqD0eKdBo9j7Dh+SvfMhLtQ1C7ETTSDGtEhgVD6uVYvgPX7ItyIkgPcnZH2BCFxfdKasePskaY6lOWWCfCgQYkY9GIqGcRpPUzqFlcZEBS/UYnalAWzwah0b1LR3RzdjeKvUtBPecgCHqLGR3+zfbEj+LKymchoCFaDYO4ptPnlYTvFNTthRWRIO1ONFz9ToRDa+XwxKLhgd/+FacmcVnG9soDVnSK2+TdBeGuvGF5MpfbLqO+42lqsZGKsPDtotGFVA6vNGRdS8PPsBOGGukWrjsWlvOUDgY4Qr15C2nUdXtRO3NS1MjrSYXU5fOzEw4NE4df3T6WShA8YXssD60bP6pgPnNEcWNmu8vjjuJDmr6EZLA3Oilt5i6k9gWR/Fp1n/0lNeQueZdjLnuJGnqZayomT097SA6a+kqkEFKHx81p3E7KErwXNcv+NGFxFXdfDFeWP0mNXBMPST06/tSUa+b0nRKiJsLLliPqvCunJ2wMVH3GS++LdhVQu4wM+Yr0BqzMWljZ5giyVpZ3ZjyinklmEj3FFi8I623SOCZh88Y6ilFDL+fkzCgHpDTjfTuk5r1a+bkJs8NSegyqY8jfZu5yKKduT2QzCS4SGTxZrPaUN+Jz0ODqnGi8zrk932WmDHSUfx7w9xhQW5L2TcswLBq7IJUpcJj/UbSQGnX70lCuwdQpkGuW2K0yMZM1yaBcnDojbiis98GMa8NMT7LN+BvKuplnxTL/hf6DvS30IQ+af/4KSdDWItV12xwro80Ow+pAc4k6Znsmpcd6X9a1eKzKAmqmUjI9H6xRQ2qgtQ1Wi/nbHFIf/UJAcXZvxrqh5qhl4oXP0l7Pqa28bG9D6sye/2RE1Pda/hvSWe/rkrhPYeb4t1xoxafOkJOO9YFZ1cjKEPYspWDUWt43Fs3HqG2oSSRqNm5ljoJ6n81t27xdILBma4eCWrbuODWfa6EM4Y9OBXXunY7rqb2I+oa1i8zDOWHHRqM2Hb7DcuT1LiU1eWmpdveh2HfgEJ2qMOrc6zvXU0u+lJAaZX7AUJeo2TRu3Y4TiRqLgXaefK0voc7TJwXqOtqhsXldF6dG3r2YYWr9RJELUgPasopQtzl11uBmMjuC6uWwX2e3Wr2b7NfZmi9BjTt2SRd+l+RFwgWpgw+mFqEWOjzLbGSjEaZeknU6vMTMRj/S4dqa3UWM2gpmGqaY7iQ0sJgLG3lyRdtYMWo2Xmd+EYeN15iad86a8Zr9PbB4NhqveYpml2PHv3XAx2ts50nY8QpRc9vsVm2btT1WGbR/tlmZsgZ3bkEFb5CNoRmWrpqa+tnCxxCIOWVYi8y36UMpRM2tTKRWOwM+NwleZL4dbjMjJZzeCzs8t4xJX4odYcuE16xFFviwSSFqMecaqSqbz11hL/jnM7dxlZ5vViHsK7U2n3Pl6rOU38zhXRjJhjSb2KB1yrFUlJrP1/Eq/R7b3MfJMNus18GRIs1rPtkJW4LwVljKaSnLTOEtVM2PuStFZbiRv25OLUqX/piEcEvyLxnqPR6wSiX6DLnzlQ3nE/Fw2pfSu71xslYB+OSWjAVRJlPWcmD6Hc6ub36TekMx6tKSFzc525zxmkZihie8Ncl7YM0HXta03yxZQfqATKG1sEmoVgEG3L8Ao14XXAcaJOYl5mQTi94iGLX8gtSmcBNhS7qVpj2wRO6RR034Z5AmLSaaji/aZeSTGWoc21jY0YL4kA1PV24GtX7HjRIsrbjweRUyVrMoMXthhO9CNIGC1MHHmFiKsDt4cs2SPnOuxdDJFXiYjS8cPZr/mzMjcdtPg8jlFavXnkhC83pTOp6aw2WHO7wDNadc8dGFtYLEWorkDyeJTei6ddue9rjfCQp3UVHqkhM5ZBG0vPl87llSEJA1dtuL/qDxuNIShKxkpbUPoAGPRraQiJux9hFkwh9Emviyh+SwBRAFGXsgWmbYnJr0jdg6R/g1df6vxHR65kt/AwjF1q60+Eje7sPsuMGSU8ZKbrSQdyVeoykvmoWJRclFhSxOrU/S69H8JaZ8CLOMRV8Klrwitu3jjLjsBWWtX7vCux7Na91+5gKptKpYnJpoHqBOUVNMS2a+cmkYQZQ2GM2FMi6J/Jyzfl0SDsBw9shEz0gM4vT6NaeeLJwcbLejqG5oLVQmoD7w0tlDpL4idjlPVzeCfK0yTEd1qkT4meVST+YwlRiQFj5L0V6FkPqh/+DnGe86GX1iSSLN6A+zvKEdiOOqwOguM9ZXZsGFWHJk7A14+1sFvSW15YaKE45J8/i+lGeUSiy+x8YOg8Oh3lzcWZNVDjUddfsG1sI9SHTLjjTIpoRecsXuvqFxsT/NXlPS2/cWDhMO4o4GEQhREgjirvLhhQERvEq+EPfZkxOz7pN7kO7oHiQ2luidxWq19gN9+tP9zc3j4+1Nb7L+iJU96d3cPj7e3DznIPOyTu5o3Nubu0li4bT3eJv13Smn86i8nXM2eWCJKW8Vmt4+3vDH3MVDnotYEnODi8b09gY7LdtKvZq3NzEncTPvb3Kmawr1VuT/AQ4jiE7EwTfVAAAAAElFTkSuQmCC;" vertex="1" parent="1">
          <mxGeometry x="406.22" y="525" width="118.94" height="100" as="geometry" />
        </mxCell>
        <mxCell id="TcjnYduFdrtGoyZPX38t-9" value="" style="shape=image;verticalLabelPosition=bottom;labelBackgroundColor=default;verticalAlign=top;aspect=fixed;imageAspect=0;image=data:image/png,iVBORw0KGgoAAAANSUhEUgAAAWUAAACNCAMAAABYO5vSAAAAvVBMVEX///8Ol0ghIiEAAAAAkjuPj48AjzO22MHZ2dnCwsLs7OwdHh0MDgwTFBP4/Pqp0bV7e3uEhIRoaGgQmEowMTAWGBaioqK/3clcrnhaW1qoqKiZmZnj4+POzs4AlED29vZNTk22trbJycmurq65ubmeza6LxJ7Nzc2NjY01ol7i8OfR59mAgIBFRkViY2Lh8OaQxqJEp2hptYR8vZJfsXwrLCtvcG85OjknnlZQq3BTVFMAiSE/QD9BpGTI4tCkzeFcAAAOcUlEQVR4nO2dCVfaTBfHJ4SEJIBSFVrJVgQVF6zVqrXvU7//x3qzzL5kI4vV/E9PjyFDlh+TO3funZkAUF2Hr8fa1cWPPY7QK0+jYKhFCsyHg64v5cPq5iphnHAennd9NR9TB79MjdLw+GvXV/QBdW8GGivz9brri/pgggaZVWA+9ua5Pv34a4qMU/N82PW1fRQdPCgYJ+b591vX1/chdC4Y5N48162vxxKDzJvni94876MfPzOMBcU56M1zZR085hgLyjxf3XR9tf+ozodFGccyf/Xmubze8g0yZzbMi66v+V/T9Wshg8xx1kZdX/e/pBIGmVVvnovrsJRBZtXHRIvp7XdJg8wqMO+7voP3r+tvFQwyq6HWx0SzdVHRILMyf/YpK7Wk8c0q6mOiSlEJpzo49ykribiE0/7qU1aixITT/upjoqxGWo3Ggqg3z5RuVAmnGjj3KatUmQmn/dWnrGKVi29Wkfnts5vnAgmn/fXJY6IFE041cP685rlyfLOKhr8/Z0y0eYPM6jOmrPaMb1bR5zPPjy0ZZFbD35+qk3LRCeSoOh93fect6rojyFFt/kRG46Lddo/B3PW9t6erziBr5udx6IrgCIbDYVCizifl84sNP8+QjeNcGObVxWg0On8IijrV5uv5aHSf7x72lAkKkh19KzTIKPgLexyjPMw9ZUzikS78lm83gm+49HVO4Z4yYvaLLX1wlYeZ9oJvsut+TxnKFDpoeXWfSaN+y/xNesqp+Koc6Trb2rI+8NfMwj1lSFkykCLbDPxkymZ3LJul7NhL43Y2m23djdXkeQopk7I04H6YgY5q+2Id1ELZOz2KdbcVdxl3ya5Th/vcfp7r+mQyjTSZ6Lr+fcGXcNNv3i3SzXTr6Eg8xQoW9KO/rVNY7O5Scp23aOda2FWeMnhU24FGKFv6PJEu1smjSbqHZejq+nTAaDzRT9lvz9KD6rfppj5NNxfCKRawoB1vnMJLmY7Fy9ygfVNxXwXK4FXZqDVEGaL6T9h1NE/2MJTt6WQg0Vx/pr85S3+H6Zd0E31FD/lTLNJdKWUHXspgYvDlQnwIW7yFKpTB704oD/QVv0tC+VYfyyDHZAYeKaagPJ3xp2AoRzUbXYvHlXuGj8/0TnILlSgfqGxGs5THwrMoUr5DhSUaU2gUlAeCWWIpgxP4G86/s8V8jJ9vAWJVoqx0NJqlLD6nAuVtBuTYPGODoKLM0+Mp+4oH6wnSl1h2UJWyytFomLJQUXjKPgV5qkNNiAmZn6JvqigLZpWjjC3DYEKbcAO1HS/SW6hIGVxIjUbTlOec0eMpn2CgE3228WIOjr/YEVONYSkpjwfsKXjKIW4AKRPu4Rou982rUpb3npumPNBZR5WjbGMLzj641g5RHO/gR0rKA91lTsFTBmsJ0d1cJE+rMmWpo9E45fEJs4ujfAdvdjzlPYAZ7xuoKXNmSaCMkRLrsMT1W3EL1SnLHI3GKQ/0Jb2Lo5zx3KIfYAK/n0F5yvQARcrEPMAHJlS7mlDVKcscjeYps/0GljIqiNDRQv2JKeybZFBmfySRMviCOyDpedEvKPgnWHtQBiMBYguUJ7fULpbyBhYUegwUCmSYsygznUwJZTCHrWnaA7EzXeVEZSgLweZ73mi0QJlhyFJeQlZz2VHQThiByKLMPPkyyoTrGSDMuWaTVhnKIwHLL87RaIPy/A/ZJaUsiXdQZOBPkEmZbsVklMEpagAjt+92Qv5WqQzlr/8T5qFyGaqGe9gD/obllL/LjlKMMmojSZRVSplEjVyPqdcKlaJsarzROGiP8tR9EipNKcpQ6aaU8vwINWTELEkpAxexnb8gGy2JTWOVojwMrvjv/2BANkl5ssStGzaAJSiHFlS6Kad8hyop6YrLKeO4BXrAJDFTSuUoa8EDf4CvNMlGKS/Af2PujkpQ5iSnfIq9NPz8Kyj7bGPB+fG8SlLWxCUv7imUDVO2OKe3AcooGI87mQrKJGqUFpe2uFhlKWumMKX6gfhzDVPGt4b6DfVTxmEKVDlVlEO2r5SdwS1NWTMzHI2mKaNbQ32LBiiDF9YsqSiTqFF8bZLeJq3ylLVAcDRaq8u4bYf9hjzKoeEKSveoKSOLC+NrSspgh+OpYhKHUxXKakejccoAtunj1O3NpaxPeGV6cqfUQaE3p6ZMekuyhCqjCpQlQ46Qo9E8ZdS5SJNT+ZQHvLJ6JSll7M0lx1FT/oLbP1XAE6sKZcmUkHOzJcq4c5uQbYQycJE3F5NVUvbIscXMN6dKlDVTAJQ6Gi1QRjeX9LWaoQzG0CzFnUwl5R01IiHHxahIWTIn5G/QDmXSb/Abo2xTnUwV5RV9aEVSFasiZW0oOBrHLVHG/YaXxiiD78gshSrKeCgRLJjZ9atMWfvNHyke4NkGZdJvWBegTFSGskc6mQrKtyzl7DBGdcoc0EhvZjuUSb8BPOf1ShykEIWaClHGEHVrKaWMmz5knPkxDKwqU5Y6Gu1Qxv0GY1ZvfJlQxp3M72spZWRSxi/IncsKL+9BWTOFrOCj2QplcARvbQ7b+fop4+Q/PgVDGTd9uoNCK1mpkn0oSxyNn6/MZlOUHe555SjvZEcpSRmbJTFBA6iBuC411kgYbEu0D2VtyC8mcsD2CpuiTFIVUsrSWrUukF2lKXMBZIYyTvU9AWrIizqFvR9l0dFg/bvGKIMBM0iZHykgu134ZKNAcC5lcMcEkGnKJNUXT4PAuQU67ctpP8rBq+KwqZqjbDM1jRv1MpGk7NGDPYfpuXzKDnsKijJq+mAygYxi36huYT/K3NxWXs1RBn/mIuUw49mFVPFR8ikDgxk8RyiTpg/6yDNUUBk12pOyxNGg1CBlj65piCoeJnHC9xGwIdczs6sMZTychaOMm74V/4kw5DO0/CR8ui/lzFUuGqTMdL4QZVzL5nN2+MQRdkpQOq8I5Q31SxLKKI5CjYpb8b8h1NnKc6x4EtzelEVHg6hJynSIAluIMc7f6y8LeMeO/UwmpuH6V4QyNsA0ZdL0eWJBNsnq+6FlOWAZ1kBZO1auptUkZTrvhilTjeJ4ouuDl/+eJvTkPxI7K0SZMkuYMgLKuMcEPR01WgPb9pYeWNVBOWCnBVNqlDLuN9Ct3TMbxBmP2WlppP4VoozbTEIZGQfOKd9KJgx6FrA9YFv1UFY7Gs1SJv0Gyqf4Lp1SicqRWEMxysQsIcqYJjdHeCwO5IopL9fRVddDWVO9XqBZyqTfQHtu6gl/czqgU4wyNYsypYyaPjzuBokMtsX4HTuuyNG/dT2UNVO+fHXDlB2pf7zkJ2GnGus7ulRBynjWVUrZ411lIuxFPuGP1iDy4yzPsmqirJlSR6MuyuNYkvmKbrpnzPZCnBk9xQ/WPf2E7ZjNJsk30XCVdGsqUr5Ep0go76ZwS1w2wIEFxzpuFsNkJQN/VYcnByVzNGqiPD+JNZAkfU5STbm+XrjY6fpkOp9HNz2fRl7GZMYvtXD7lHzzCQ5UHqRbklD8UVpwHFPepFdy8iSLWCwG8GomxMWz1+t17FDWRTn4KzlxPZQrKbxcfjn6s9vtTp/djWyeSasqs9ZL5tplQ2HMbbdrvbwrZVNmUx+PmYs9SRyNt37dolRl1uDKWeVMHHPbr8EFlbOeHG0G7vPWkuMxv/XryUHlrA9HmQFxDqVYmklr5yza11OmwKHXPxVaczzQzpGNOcj9Qk+ZAjd8OBwdPhZ9qWJg/rw4HI3Of+W/muMTUS4Crthyykz5fv1lRv1a4m2oXxe/DfXveGhF/ftKWlH/7p1W9NbGi/1YtfceKX+9yJsm1pbOW3zvXKxy70RDqwGoB/uptTYMY8MeJj4Q/rvVmOhBm2aj7Pv9nK2RylUxCR3FfAPPcPFv46HDbK3ocyjpepHN6R2/q9Ixln6slWEoqrP/xZfvODPIYB90GP/SiSinf1+2vsz4u33vqmPALJtvKAZV+oaCsm2Q6u8YZM0nT3WkFnTf/DuEq7ziHVMOjTT1x9iHMNqwDLZOYgvyHim/0/dhc5RXsT0984wwYhXa7tYG6VoB2JXwFrENj8depDt8dJh3QhmAm6sG3+2uGBuTJ5by0nA3dvRfQtk1VmcWRzlq2db2yo05LtSU117kYGTO0WtUI60R8xzgQHVpYcpexCkiG/95mVKGzSFjMRaJlQjjAhkWI5VqXc4WdN+A91zJIENFlMN4YqTvRjB9Ix1ZkVKGlOjWL4TeWeJesJTdRSI7XpQ51pnbJebrXzWbjeGxkHgtoQgPrHo28c2WCWW0jDpFGVVZK/6MoyxU4KTCd6abOl/eHKgGKxaUYyw2q9VqcxabhwKUU/sioUzwhtDx3hjdDog5LJqCypX5IBrk0CvRXabxqChbQulMyu4Wzl3rmHIcEq3DPJs/hSW7QLi2rctl4fvDrV8sRHmhqsshLO1nUV5CS9E9ZXD9bW/zPNQkBjlcRI1ZCFZFb5ChbKWsQoOmbNElUicErGOAKsob+Ft1a5eh3vYzz4G4kGKsVegs/PUZyF64g4ihHOG1w9BzXZpyaLgrtIBnRHDphI6dwFZRdgzDd0JvaYgjZLvQ4R6dbplBjrUGzgqES3BZsDI7W5qFlYbnNtuI8tYmH25xeG2Zlogtr70l5/C2a/4oRtEfumkdPFY0z8MrVXxzAxx35YbAKhgQC9kosHO22vgg9EN6R+hRR/PsuETyl0UsAnuY0N+s7M6NMtF1oVcHcwo09WCLpC57G2BXCct/XJWOiWbHN20nthirwnb50+i8lHnOSzgtk0q8eAfN+ztTiZSV2iBj2evNetVDlqhgyioICiWcesQqFTDPe8Q3eyHlxUT3iW/2wspMWVVMOPUSdfNX9TLQ0iMAemVoFEjMRm+Qa5dons1XMb7Za09xKav9Ek69lLq5wl5d5REAvfIFU1aBKr7Zqx4dvh5rVxe9Qc7X/wFdTVq41u7yrwAAAABJRU5ErkJggg==;" vertex="1" parent="1">
          <mxGeometry x="591.22" y="535" width="202.55" height="80" as="geometry" />
        </mxCell>
        <mxCell id="TcjnYduFdrtGoyZPX38t-10" value="" style="rounded=0;whiteSpace=wrap;html=1;" vertex="1" parent="1">
          <mxGeometry x="380" y="80" width="210" height="320" as="geometry" />
        </mxCell>
        <mxCell id="TcjnYduFdrtGoyZPX38t-2" style="edgeStyle=orthogonalEdgeStyle;rounded=0;orthogonalLoop=1;jettySize=auto;html=1;entryX=0;entryY=0.5;entryDx=0;entryDy=0;" edge="1" parent="1" source="TcjnYduFdrtGoyZPX38t-1" target="TcjnYduFdrtGoyZPX38t-7">
          <mxGeometry relative="1" as="geometry">
            <mxPoint x="310" y="413" as="targetPoint" />
            <mxPoint x="180" y="373" as="sourcePoint" />
          </mxGeometry>
        </mxCell>
        <mxCell id="TcjnYduFdrtGoyZPX38t-20" value="https://p-dealer.com" style="edgeLabel;html=1;align=left;verticalAlign=middle;resizable=0;points=[];" vertex="1" connectable="0" parent="TcjnYduFdrtGoyZPX38t-2">
          <mxGeometry x="-0.8083" y="1" relative="1" as="geometry">
            <mxPoint x="-4" y="-8" as="offset" />
          </mxGeometry>
        </mxCell>
        <mxCell id="TcjnYduFdrtGoyZPX38t-24" value="port 443" style="edgeLabel;html=1;align=left;verticalAlign=middle;resizable=0;points=[];" vertex="1" connectable="0" parent="TcjnYduFdrtGoyZPX38t-2">
          <mxGeometry x="0.8325" relative="1" as="geometry">
            <mxPoint x="-44" as="offset" />
          </mxGeometry>
        </mxCell>
        <mxCell id="TcjnYduFdrtGoyZPX38t-11" value="" style="rounded=0;whiteSpace=wrap;html=1;" vertex="1" parent="1">
          <mxGeometry x="600" y="80" width="210" height="320" as="geometry" />
        </mxCell>
        <mxCell id="TcjnYduFdrtGoyZPX38t-12" value="" style="shape=image;verticalLabelPosition=bottom;labelBackgroundColor=default;verticalAlign=top;aspect=fixed;imageAspect=0;image=data:image/png,iVBORw0KGgoAAAANSUhEUgAAAPUAAADOCAMAAADR0rQ5AAAA81BMVEX///8JnOwGbaUJlOAAaaMAa6QJn/AAaKIJmuny8vIJm+oHe7kGa6IHe7sAZqEAXp0HgMEHdrMGcKr2+vwIitEAYp/s9Pji7vRflrxCirdzosRMkbuOtdAAcKfJ3+u71OOxzuCEqccYfbAIic9NXGSYtMzb6fHD0+KXv9ekyt4Al+sjd6szhbTP4+44fa5nlrxdkrp5rczk8/1nocQAWZuDp8aFtdF2rMunwdZMiLSy0+RRmMCEs9Btu/GVzfWf1fdOsfDD5Pm9wsVmcnqAipCVnaJyvvLh5OVodXukrLA+UFlSYWnM0NI5rO/Q6vuZ0fZ2ut8P1CZRAAAVBklEQVR4nO2dDXvauJaAiZBimoACGJtPGwc6LtSGJMNOQkKm0872dnbvvb2z///XrGRLsmzLxiR8teE8M3lSRZb0WtLR0dGHS6WTnOQkJ9mS2MMMsfVDF213oq+ApRTQMQ9dtt2JvtKAUrSfmxoC0EwJAPBnp26UU9L46amrtcpZUmrVn576klCfn59JPyqXb4K6Uq8R2NqY/lavvBXqcqN6fnZebRDgRrP8dqhRRP2G6vpEfaL+KeVEfaJ+I9RvcryuNQh1k5pltdqbqeu3aYcn5GenLtGZ5sV5Qn7Emabe/a+rwgIBqCrkx/MqBF6h18qPSa2oPrBJ6A9J3Ri3ktIAhUPHhf1m+tF4zUO9fB5Xy+cXtWq1VjC0uDabPLd3jVNQMkejTUKLUbse7ts7Byok3BfWahGAVoswlVsVzheFXrTyQotR+xAg7eEoNEDMtm6C8tl5A5Q5XxTKLe5X2OETTHQhwl1391BrJU5NIM5rzUqCulkWs6uXz7lmIwQCfe8fQSvfF7W+0EB1PKaDOxruAyy/NHuiHmIEGpXzMhn80OGxVdTJfr0N6i4xhqgSLDeJATuf7QMtR/ZU164Bqo1goCNpAjQ68MC9J+o7DKrlM4YNAO7uBS5T9kNtPiLQ5GZNuUmwJ/vBy5A09WVGv37NeD30QLUurLkybeMH7dqc+rJJSC4bhLreiGq1xkMrtWRok7rMWOha6qUmGjiVehXgziGnIoz6okwLVS5f0B/C4s4PPROh66j1HgYNibrSqCJ0SGNFPfugs6vCoeupzT6Kb3JoAaCt9gNothXi9pFqr8lldYNQgG5nqrTFq3AtuVtTIcOXsZ/Ra+J3FeIB0GykpLlRKPJUKfsDQU1MlHFsXt6qAm0/anyAkUpe7zYjRiZUJIx/E9RGaJhJ3YLY47d7ogagmiwa84WRX4L/YqHquEjErebHxdc85ykGzXKMmqhxtB+7dKCB5mU9KbTVpgK3EhpRT9LUpIlbwSQkpgB2Q02Gj4uY0HEH0NEoEVrLCK1uEDeXuky6Re9+cXvrz+f+4+3tw2S4G/aQ+nVj1CbetHxq0kI0TQu7A0QQY8MY3bnbN10GganAbYxK+IPXnxx6kbRH1KFnsdBKIlSua4dQtxLUDaYIuZ89cC/BhbN16qCuQ9uzEdie1IoOqaVQ2fYUoZVUKJAs0tA6r/HQy0YlTp3W4XQKQ3mbjVqtdtloNkN4hK3rLTd0Ri3NrkBE/dLZR0TdbMRCY9QpK4X8vVkfx4ydca0JqOa3hltt5mELX0v9gpnmOuq2D6v1eNevpG08Ak6bPTK2ar4UrOsdUFNXYUKRKqkJN1FyPwt1aYljM81A4ymlRczb5jahD0lte6BaK1DV5drW3SyH69cl/RGB6kWxqva3Oxc7YF1TO0XW4llV3agiuNwq9EGpdTK1i8yziwzoehWg/i7H62Adr5qkTq7uNcXqXjMZGvDJodVGLDROHaztNSr5Vd2iCnzb6yJhvz6r0LyDHxcVMaOIhUa2dRRaWRd6kQhN1PXQQgDVcquaQuPFlqE5ddJG2mhGUTxUojZny75BTW5W2eqqbjWrQOtvffoRtPDUbjFSZuUesuqlOvSscGhArc+mg85Io1t+wDgPmton0N/W4vb9iouPQPPyspYQ6hNIhm0nFM0X/blnAQgRZRbtTAldo2u83tYGLQtDJki5cWqzPVYbhSKSJ+nN5BfQrIs5l6KqW3XyVhDc4jaGq214A18swQsgyJI+SSNfNukk03jYnnlCp7aHk+ZljRDHVF1Q1XyvWr1OptZ0fomg52yNOVw4HlM/R1Ld7E0Syp2pa7l7AA12J1tV3jahbpXL5dTQciAJqnosfEbUbW5YC2fL6yBTfFTUoSprBJqOKlio+Q9Dc+uD9JFRh/qL7q1+chxn6u5orYtTp4yygwivagR3u457XNTc3kb+TqEj6ov1Zdq1sFlHrQqws1tqqsPHR0Jdiap6x9szXE59eHXGqrpOplZb9pcoqevHQc0sUGJxd3e+TeEKVGtHQV0RvRoO1hf7lQJR9bJ8BEqcQbeIgWLtfme8z3fbHJg6mkfvWoFTWUHQLB9eiTPoMQCwu4f9dc8aaLYO3rG5K6FRRcDZPXTJIRPs8aGbOIeuUwt8H1spXYhA/dDU3G1CJpfWXnYetX0UDl0HbOLcWURV2cM+oNna8ebUH7cHLdo39f3uaavwEgPQ2rSJfzz//dMfnz5vRe9zaLq2Ye3roMvQYjbpJmPX5y+0TswvW8AWnuAGUWV3+9oV7go7pXgT/6zTE7Tkx6+vxhaLWnTBcr6/84o3EIDyZk3815L+53//6yt5+I9tQQcrOns8yEVXzDcasT/+Xir9+f79P/8kD//6/XXUHDo44vK8P+iSSZeON2niH/8uvfv6/v37f5CH9W+vUuYCmnTqPd/f2UXMKC1Y2R+/lP76H0L9/uv/6q+jFtB0fjna72lcapTWN6hsXtfv//mP19W1gK7Tdaw9n85sj8TZjmIq+XPQr9+//9e/X9WvBfSY7hDd+7m1gcZnIAUr+z8E++vXr/8mOvzFVR3tw2jR5bu9jdRCbI/rs4I9+/uvRI+9I09+SS7OvQSaqu8D3C2idyAfvAqq8e9fggf/2BI0bB7ipJ5NppvNTXr22cfv3z59e/kUJNqQQGeXe3CKKqUPN+vZlPvjy7V3JVbT6FA3SNiG6NnZ2OeV1nacawlo41Dnb4PLHOr5bbwyroKtOFwEczm4PeKAh47dOeLTbDVZuU6MRnYLwKukkoDuHvKk9TOp7Kw2fn7WCvcBYfTKyUYMmlhkAFsHvUJB9yG3S5Obglo1EB6wmd+Zv754rApE3iJ6SfeQrQ58A5Bt0ZOF4xZt5sFmSVotrXG9AcItcdgfUFX795YqukXvysCHv/ZoYNBNP6BJDxMHGysb9BxVsPUPYcNn+4DMz1uwQUMnAjKeD3+jmd6jH65IbIVECGLgPd5Hvc984eh1IVf0Jb3xaOQcDjaSth/c1qeFQng1bKBR/3oa3xrzIhehzEwqmrQg3D/0DThM7GD3bmfkjUbkf3+1GAxnbrrn/b15G49tib0M1ETvWC6uKwU78lfvmGR2uk8bYseY6XlspM2dPWKtkylR5Hjlcu6saBs5UGLM4wbt0ahzDHe3RTKlirxvv8vnNn8vjB1jJsYOtUy86eF1d1ymdKCynHf5zdz8tDkysXYoM7IWBx+k0+J4kIxXz3+t4f60TpNfVBLM9dDA6xz8zjal2CNMSvdol97lgv9xntfKk+cYSD0HzCPnCCs6ELevIQC966i6leD/+a7GvrhIHd0IDk7TDf2TY2WmMrEgVTpL9927HHL9W7yVX9BWnT6s0qo3Q0N+yxv6ty/DLm3l2uMv5ruUSEX/wqu7UlHxBsiNoGlD7C+PxizJFPNeI4YaRP6kneaOxPymQhVSbwRaG0LYdY68npm0ex6tb4wXH9wc7tnvamAyR22yKSrq3h3BzapFxe4BTAZvDXWvnVk291OqvgnxZTBHJdVseD3nuAyxdaLPFpioczL5suaPz8NMblfiHodHsMKzeRj2ne2fVdm9mINbL7wBDBtX/mrg2DPXbZuRkjNNs+3+Zf/fmFZwg8zKEWDA3mPv6CzPwqIPB33CELZXbEDP73Z6vetfmPR6vU63OxpZ0dU9SDOgf73c0XVNexPTHfQNA4d3MVH3iqZpmAn5FSJIQ+ndbSTYwKPFsN3+YWs5Lvakd+vPLYgpprjjLriSir4DZHnzx9vF/fTHUl0FRHdtZ7kkTbrf971QRv1+nzT4wXLpDGc/eJPOFV0PNFgoRLGZ5vF8vOEkJznJSU5ykpOc5CQnOclJTnJAcYdPO3TLk9SPcLatDzzL8qa7Sn1CU3d2lPrLZYmDLVXOjlI3aOp7O35YVPRu8ElU3NuNF2QUeNViV28eg+hhueC27zRlEl4Vp+3onb5YGPXWb3JlcnWiPh45Ue9ATtRHJCfqHciJ+ojkRL0DOVEfkbwR6mDROVpnzqVOxF2Trk7jJiLnU+tZ25JYYllZxR5TZyxHsJ3Bqj8a+f3FZBhuoMimnn2Y9Fb+aNRfPTv2mpbgfljerbo07t0yFjeP2lyuRh0nHd4eLnu0lCTjpZ328ujL7mjFNyi2bZ7xYvJBuSXEXN54GqbXstNDO8jvTXOon3o+wuG+E4ixdzvIqXH7umthHMV9js7s5FDP+khDGkzeomDf9a0oY+txkGDRn0lOGgiu7Jw9P4qMCZl/neaeWghKX4ekn3PzHT7vT1DbPimRHBmizL3Nbh/I6ZK5OgTi2E4mtTmwNPpU4op/d4HiiSEI4mcZP4Tl9UwSF6BExklfld3HqQ9iIoQ7hC9F3X7A6a9nIsNX+YHMAdSSUelRU9YEs6hnPruaHllSQfWJlS4lSUzeWE1v5iJiuKq4yIplNPUUZaMpjrwUtd2F6azpq7TSN8G2F+qPiyIYdgk1tflsQVHOiNrsqW/pR2ARPT8IqdGt4v0QnicpmwGAiijB0+GzErXtZcdN3urRnqtfECUNSqqktkfRU9ATfdHtZmYs3azBqIE6Xyw5e59jFY0UJY2ohzFo+oVX6V/GIlZ8tysljOJxwdVQTe3eSbUEgdBm7VEssXgpcYd3f06diMsqD0eKdBo9j7Dh+SvfMhLtQ1C7ETTSDGtEhgVD6uVYvgPX7ItyIkgPcnZH2BCFxfdKasePskaY6lOWWCfCgQYkY9GIqGcRpPUzqFlcZEBS/UYnalAWzwah0b1LR3RzdjeKvUtBPecgCHqLGR3+zfbEj+LKymchoCFaDYO4ptPnlYTvFNTthRWRIO1ONFz9ToRDa+XwxKLhgd/+FacmcVnG9soDVnSK2+TdBeGuvGF5MpfbLqO+42lqsZGKsPDtotGFVA6vNGRdS8PPsBOGGukWrjsWlvOUDgY4Qr15C2nUdXtRO3NS1MjrSYXU5fOzEw4NE4df3T6WShA8YXssD60bP6pgPnNEcWNmu8vjjuJDmr6EZLA3Oilt5i6k9gWR/Fp1n/0lNeQueZdjLnuJGnqZayomT097SA6a+kqkEFKHx81p3E7KErwXNcv+NGFxFXdfDFeWP0mNXBMPST06/tSUa+b0nRKiJsLLliPqvCunJ2wMVH3GS++LdhVQu4wM+Yr0BqzMWljZ5giyVpZ3ZjyinklmEj3FFi8I623SOCZh88Y6ilFDL+fkzCgHpDTjfTuk5r1a+bkJs8NSegyqY8jfZu5yKKduT2QzCS4SGTxZrPaUN+Jz0ODqnGi8zrk932WmDHSUfx7w9xhQW5L2TcswLBq7IJUpcJj/UbSQGnX70lCuwdQpkGuW2K0yMZM1yaBcnDojbiis98GMa8NMT7LN+BvKuplnxTL/hf6DvS30IQ+af/4KSdDWItV12xwro80Ow+pAc4k6Znsmpcd6X9a1eKzKAmqmUjI9H6xRQ2qgtQ1Wi/nbHFIf/UJAcXZvxrqh5qhl4oXP0l7Pqa28bG9D6sye/2RE1Pda/hvSWe/rkrhPYeb4t1xoxafOkJOO9YFZ1cjKEPYspWDUWt43Fs3HqG2oSSRqNm5ljoJ6n81t27xdILBma4eCWrbuODWfa6EM4Y9OBXXunY7rqb2I+oa1i8zDOWHHRqM2Hb7DcuT1LiU1eWmpdveh2HfgEJ2qMOrc6zvXU0u+lJAaZX7AUJeo2TRu3Y4TiRqLgXaefK0voc7TJwXqOtqhsXldF6dG3r2YYWr9RJELUgPasopQtzl11uBmMjuC6uWwX2e3Wr2b7NfZmi9BjTt2SRd+l+RFwgWpgw+mFqEWOjzLbGSjEaZeknU6vMTMRj/S4dqa3UWM2gpmGqaY7iQ0sJgLG3lyRdtYMWo2Xmd+EYeN15iad86a8Zr9PbB4NhqveYpml2PHv3XAx2ts50nY8QpRc9vsVm2btT1WGbR/tlmZsgZ3bkEFb5CNoRmWrpqa+tnCxxCIOWVYi8y36UMpRM2tTKRWOwM+NwleZL4dbjMjJZzeCzs8t4xJX4odYcuE16xFFviwSSFqMecaqSqbz11hL/jnM7dxlZ5vViHsK7U2n3Pl6rOU38zhXRjJhjSb2KB1yrFUlJrP1/Eq/R7b3MfJMNus18GRIs1rPtkJW4LwVljKaSnLTOEtVM2PuStFZbiRv25OLUqX/piEcEvyLxnqPR6wSiX6DLnzlQ3nE/Fw2pfSu71xslYB+OSWjAVRJlPWcmD6Hc6ub36TekMx6tKSFzc525zxmkZihie8Ncl7YM0HXta03yxZQfqATKG1sEmoVgEG3L8Ao14XXAcaJOYl5mQTi94iGLX8gtSmcBNhS7qVpj2wRO6RR034Z5AmLSaaji/aZeSTGWoc21jY0YL4kA1PV24GtX7HjRIsrbjweRUyVrMoMXthhO9CNIGC1MHHmFiKsDt4cs2SPnOuxdDJFXiYjS8cPZr/mzMjcdtPg8jlFavXnkhC83pTOp6aw2WHO7wDNadc8dGFtYLEWorkDyeJTei6ddue9rjfCQp3UVHqkhM5ZBG0vPl87llSEJA1dtuL/qDxuNIShKxkpbUPoAGPRraQiJux9hFkwh9Emviyh+SwBRAFGXsgWmbYnJr0jdg6R/g1df6vxHR65kt/AwjF1q60+Eje7sPsuMGSU8ZKbrSQdyVeoykvmoWJRclFhSxOrU/S69H8JaZ8CLOMRV8Klrwitu3jjLjsBWWtX7vCux7Na91+5gKptKpYnJpoHqBOUVNMS2a+cmkYQZQ2GM2FMi6J/Jyzfl0SDsBw9shEz0gM4vT6NaeeLJwcbLejqG5oLVQmoD7w0tlDpL4idjlPVzeCfK0yTEd1qkT4meVST+YwlRiQFj5L0V6FkPqh/+DnGe86GX1iSSLN6A+zvKEdiOOqwOguM9ZXZsGFWHJk7A14+1sFvSW15YaKE45J8/i+lGeUSiy+x8YOg8Oh3lzcWZNVDjUddfsG1sI9SHTLjjTIpoRecsXuvqFxsT/NXlPS2/cWDhMO4o4GEQhREgjirvLhhQERvEq+EPfZkxOz7pN7kO7oHiQ2luidxWq19gN9+tP9zc3j4+1Nb7L+iJU96d3cPj7e3DznIPOyTu5o3Nubu0li4bT3eJv13Smn86i8nXM2eWCJKW8Vmt4+3vDH3MVDnotYEnODi8b09gY7LdtKvZq3NzEncTPvb3Kmawr1VuT/AQ4jiE7EwTfVAAAAAElFTkSuQmCC;" vertex="1" parent="1">
          <mxGeometry x="449.31" y="320" width="71.36" height="60" as="geometry" />
        </mxCell>
        <mxCell id="TcjnYduFdrtGoyZPX38t-14" value="" style="shape=image;verticalLabelPosition=bottom;labelBackgroundColor=default;verticalAlign=top;aspect=fixed;imageAspect=0;image=data:image/png,iVBORw0KGgoAAAANSUhEUgAAASIAAACuCAMAAAClZfCTAAAAhFBMVEX///8AAADd3d319fWurq5ycnLh4eFISEiKior8/Py/v7/R0dGAgIDw8PDOzs7ExMScnJxnZ2eioqK0tLSoqKjm5uYzMzNYWFiTk5Pr6+teXl64uLhhYWE7OzvIyMhKSkofHx8WFhYNDQ0mJiaWlpaEhIR5eXlBQUEdHR0vLy9SUlI4ODiaUFcAAAAJgklEQVR4nO2da1v6PAzG1+EJEDkIoqiIB/w/6vf/fg9NNk5ubZOmdJfr/cJLTlv5sbRJmnZZ9pfVjd2AxmsWuwGN1+whdguars4wdgsar1HsBjReo0HsFjRdw17sFjRdg/PYLWi8/sVuQOM17sduQdM1XcduQdOV/xe7BU1XV13EbkLT9TyJ3YKma/0cuwVNV08lt9qsmXqM3YSm620RuwVN15NKmUazRmoZuwkN1436jN2EhmugXmM3oem6Uyl6NetcXcVuQsN1pu5iN6HhypVK82ZGdZRK0atZL+oydhMarrVK0atZPaVuY7eh2ZoplaJXs16V6sRuQ7M1Vyl6NetDpejVrKVK0atZD0ql6NWsL5WiV7POlXqP3YZma6pS9GpWX6Xo1axNeJ+iV7P+bRClymGTrlWKXs16VCl6NetiQ+gk0ess1/Iz6EHOEkwtw3+ckqnu24YQFOhf8E5fyJ6JGyuQ10z4VLEE/swI/mWsRVhsPoaVwy+80xeaWs90jm8c09u405kHIviqjKyq/lne8N+5F6Iz66kKRMqn2N0LURf+fyGeEjqiIno9FSKfjs8LUXYDD4iLWlZqF71eeiFyNjQvUwNE626HqPLjV3D+nHJG3eqv8oHpHLk+9KXpLfZeeIvIw9QAkUdG4kd/npIW0x6RW+UwGCTVio8EiNbAiG1qvoge4PTuC1se3C3zAq8iLwGiaU//feIewxdRdguMnOs4vzZvdlwHI4ZohEMvt9bUG1HhnTmO/Do0c41eBRF1fEzNHxG4yo5XxlC/1T5UowQR4YmZQaE/IsiNKXXv8M6BfuPc9biSiPAfnqkJIMrugZHDVMYl6XIXRYTXOsvUJBBBeky9Wb0UQOke0okhgvTvDekK3pcIooGTA9unuQfCiLI119REEGXgeFiyiBjQEQ4qjCh7Z5qaDKLC0TeO5t+OHdZW0ohypqkJIcr+08cxlb1OyCeSRoR9IT1hLoUIfiLDgeD1r9qXqySOKLsjOLk7SSEqUpA3dS+/6ldpSVx5RDP96Jt6DDFE2NfUZYnHpX9CkDwitHZX776UHCKMg6qdfDgLdReHAIgwV040NTlEGAdVZgJn9vGuQiEQgQdHzEEJIso+gURFscc75/oWzBftPXFLb4okIkTxu2Tok+eQBEGEqSOSqYkiQoO6PnoWXW+6WxsGUYdsaqKIionLwyphDOAY2fUwiPAXs8+d7CSLqJh8PLhinvUznF2bAiHC5whjhzAiHPn3vTOYRrInSioUClFGNDVhRMXk4+Toca3TbVIwRH2aqUkjKiYfy1ADryrerk3BEJEmGQIgwsnHVfHgu9oNcFI4RDBn7uzsyyPan3zE2JY0n72TGKLfnmJ+2BuYJY+omHzUozzOjXwwjxMQEaaOHE0tAKLt5CPOOrB3bQqJCLoDR1MLgQiz1JfZkyJ6IIcKimjmbmohEBUGhgkkcvS6VVBEmDpyWl8BiMbDHkGP9nALJx+PvUiiwiKC1JGTqXGq1Bzyq//K93oU0AVGNHA1tUCIBsVbfcowxRDVTHrAyOtgaoEQFV21V8FzaERQi+ow3gZCVB6WXRqWnQARREf2OYdiROtSZG/ZbIuTP6CFR4TZdqupBRn0oVyvEH/dYnhE8LJ156QgiDDPjzMi/NWvJ0DUdTG1EIiQzaQI1thbFYghMlTM3Dhc6AEQYY5Iz3hgsMa9p8cpEEHVkcXUAiBCtxE69Vf4l+k+ngQRTGyZcxHyiDD4wFQs1oswK/BPgyi3ujHiiDCELY+IOTXezWFOgwh+UqOpSSPCRMguPMQ1eay844kQQdWRqSRaGhFOpO1yRNh3v0adJLIgmllMTRgRTsfutwk9AM5yMDFEtlhap44MBXSyiOBbHU29oh/JWJN/MkTQG9SbmiyiFVjV0ZPvR7bnqtMhGhj7S1FEWFp8bNYY09I3kT0dIogDaiMlSURYJfM7kYeZEfKU7AkRwShTR0EQEWYaq0qtnva8SXedElHHYGqCiDDwqIo2cEKNGojQEHV7w/IrPl4vFtc4qgIilyCxV29qcoiuDJdKv/YCM4iGqFPmFNDcFVaCOSOCkLuagxgirJKpO9J9TTdlEhkRVBBqQqvxeIWM3BFltaYmhQi96PpkOVohKRDhISr7Ho2KhEj/xquqF6QQ4c4W9ZWo2JdXNqFOLET59tt86HVL56XFOei6ZtgVQgTTv8ZgCLsISs0jC9FyW07UWS4fSIjA8a1YDSaDKHf4/uhXEuYeuVfRz17MTEKkv0XFTf5kEL2q6qMfaGWxxWPx+iLtX9z3S0okRDCo/DY1EUSYo7bNQF5YevTK95MRoX+hXkaQtKchgtTRL1OTQPToOKJjh+WyoB/EQ5TNis3B1LhLRqTDyV97xAggwuJGF78Qhz3X9bFMRNrRvoL1i18FIkLko3/F4wUaAoigOU7RBTpPrrUQbETw8APGBioi2G3h6Df0R4S7A7k1A11wx707vBCB+a/piAa/Tc0b0VJRjoCBnFvlvBuiznAI48QAB6OzUTndAszIiCB1dMjaF5Et8DgWFK671UJYET0MsAFQoTPcbp9S2ElPjyB0RNBhHnzCF9E30dnBvt2pFsKGaIrR1x1clfkrRoB9tRejPXAQ6R/9bf8JT0Q4lUjZicO9FsKG6A57tWUxxhflXtA1/jwXbggDEcDdb58fIpfA41jOtRA2RNdFp4Zu2XYQ2O53qn84DiL40N5n/BBBU6j3LndNQVr7ol7hE3Zv15+jvTzL8OPzeoTfkYUIZpR3DwHRed4nChuEFwR1NhovPftoLpa7Jq+GuzkwDebuoIvdZ+n752MHZl09Ew8RpI62n2Ii0hPQOD/G2VjKrRYiIiLISpRBgAcirPnk1FdhCtJWCyGBaMxEpDuD0tSY+13PyxQZa9VrUQthuQChz4p1J1Ad4qVbbpn1rTw3W//76ire7gJtUj+ZmlWjZGpWzT3va9AC6e6IW1ffFvWTqVk1SqZm1dxv7Wob1GWGWG1SnkzNqkkyNasWydRs6r55rRNvhfJkalZNkqlZtUj3lbRp0x1x79bTGuXJ1KyaJFOzapFMzaZNd5RMzaKcd7eeVmma7rlt1RP9FiJtU9dne8GWKE+mZtU0mZpVC89ClTbIZ/u8lugimZpV05/YLWi+5pRbiLRU/A28W6M8mZpVE97WcK3SnL8pbGvE3IWxTcq59+1okSa0e5e2UuLbX/89dZIDaVXOvNFSm7RMdaJWUW7q3lJ1/8a82v/itlwBGdYyKgAAAABJRU5ErkJggg==;" vertex="1" parent="1">
          <mxGeometry x="426.66999999999996" y="230" width="116.66" height="70" as="geometry" />
        </mxCell>
        <mxCell id="TcjnYduFdrtGoyZPX38t-15" value="" style="shape=image;verticalLabelPosition=bottom;labelBackgroundColor=default;verticalAlign=top;aspect=fixed;imageAspect=0;image=data:image/png,iVBORw0KGgoAAAANSUhEUgAAARwAAACxCAMAAAAh3/JWAAAAnFBMVEX///8Ae9AAe80Af84Ags8Adc4Ad8/H4PRjqOGIvOcAfc0AgM4AeswAcM0Absy12/LM6ffd7vjw+PybyOkSi9PJ4fMAhtHt+f08mthHntkoktX3/P7k8vqx1u90s+HU6/hprd+o0OyQwudqr+Chy+oAacvj9/zs9ft7t+JVpNuUxei11O4jjtNEnNib0O+x2/LA5faZwOh8wumIxurhVC71AAAIS0lEQVR4nO2cDXuiuBaAIQRck1BFECnf2u4IU93bnf3//21PEr60Fa3VvbvteZ+ZpwqBwsvJyUl0xjAQBEEQBEEQBEEQBEEQBEEQBEEQBEEQBEEQBEEQBEEQBEEQBEEQBEEQBEEQBEGQb8bEdT6PPf1/38Z9mNjm50E5KAflDEE5I6CcEVDOCChnBJQzAsoZAeWMgHJGQDkjoJwRUM4IKGcElDMCyhkB5YyAckZAOSP8m+UsZv7Gz9K7nPsibiunCoNDwqerr6yoGWEM/kbrS1oH4ezqX3WK28qJmCXhlFKuXrHw2gvLBeOghjDORbw92/ynYNXJfeWV3m4rZxrGEgp2LPXq6sipBWVhlU1mOeOU7c6294XIT+wqHBJddxF3yTkeo+SSvnCapUlZmeiTBZwK/9wB3n5fnNhVEOvxuqu4i5wFoezUpV4GxEvcvk6hZ8Vjjc/wX5STJCNb9hb72b3xCbe2g1ZvDxw9eUqudXt3OZuyv8tFXk+MpMozY1tBYorzgUEvjzmNc0+/izgb9KRAhE3LdBOFlEYb7WpR5Vsj8SOrMrb+WjbZVvnEKHLoiXGlT+VXe06tqNz8i+SIZfM6Zma3NxJOBumERGsYo2FgY6Jun3BO9BaiVT5afJCEk7Rp5qs28o9Kab7pvHghxFVt+I4jE/KLQx4r0ZxcDl+Jwyw5djLrinrp7nLWggfNrXmMh4nhwUjPLBbX+5BR1gR8TTjZ1Y+UcVM94g3EXrw87i4bE24yeoq4xc1Mu6oo58yp5UspZ0IoBTNRHVmMihK27CjI4cQKzpcDZ+W47sO7uJ0I12WUQjvnMjkLytvXGyZrEQ8u1grmcldFKFHVyUZw+iK35IIL2T0WII6LoFwPU9cShvdaBkAageBEyoE7F/ufYDEjvZy97FBpDXYgvpLFDJ7JMl183M2xHPuPeU+hUa//0O0c97f/rVbJarWdlbZziRzjiVlNBRJz4ik5PGweY8VUqt1avM1RFTx2+TONhQUxQVhYr9sO8WhZ+9Y4Fc9KDme6wOvlWFHXXHfNlLSHfVbO/ES7uQodOxzsL3b2JXIKwnWZ7Al13SCHPTf7koAL6B/P+s4UgQ4duN29BUWyFERqlVtTS8lVrFVBDHJIc6peDmmDDaotdaqbDeUn5bxKOU68Gm5L9vYFcmTATOTPKVOVIeQcq4vxijGooWurb56zbpzazipIHdCJ9YEzwftKN5Wx56skpgA5MpVPyCCRP1rqVLeTc6o8UXLo6nDjKnAukANxUcqfO27JOwE5fdmRqQuPOQ/iBlAxnHIkxSYglJug9yc7nj75rOswvnY6GcQgPA315v5yZLdy30wJPPsCOQvInhAqhb5UkMPqbl8hwBR0LsgdDZB+6sOzQbpWiQRi6uj3+KwT2cvp20DBUBo37VarhmZ/+/bVNh3abJv7/qveWV4SOUbJ5LBRMVP1Wc8aXCvI2SUgh++ingyGmqfhU6pgzN9CZn9HTtW/fCPH13K2N5s+2A2/6+Qz+73dABmn1If8erDtB/l0Z+ZFOQeGYHl1gaV7E3SroNuVEZlHYi68gxM8m2IYPh6cL5X5qew2bRf67tvye93J6dtU2t3t5LS4jRx34O1PtemHihb3Kakfuj3jcmRK3haC6EQLclinIlc3XDKSdcdmEDMv7QinSZmU8yJ6qxNH9tGBHEjIWg6n3WHwa/1/WE6hNzmkP/KcHEjJz1DAbBs5tEuaskKEHvcyGIci055BaUKHcyuIr3AhZ+ekXbUqGdscy6kMPZS3mbEQVAXkPyknCZ3jxufkJJBTAqvpKLJCbio3o2byruGUlDQTQ5iBB+rmOeuCaR5y1Vn20CG14CV4So/lNHUOpzouk5jrsWxL+I0Xu96T0zzvV3Z8zDk5shLmYtLJgcpuCve2jHSFDxnDpKKGSUA6Jar0lSHFxT6Tt1nIg9W0EbK3Fcyg1bOlbb0vh3M/NZLJjjU14xZmHZvJwfXcXo7Z9vhVbroHjc/KgYza5QuQswtgyA5DGLbbtc3KpDBTDC3Gm0zshTCzgMkDtIIgsvTY9WxyTlQrtksO5XQTTx5ymLRDKHJVfBsyLmGmK9gNZ+XvyXG7derVX3S4440cIY4KppizdkEFhvIoyS25riDCdh5hrEO5gfUj8eIJ3MiVB9hWtjPqSWzqVk+qMPYdp5PjODrnsNyL4VQWE3H7fGbUFELcWY7TD8FGkoX9rjefWxXroyje8e7JSTkQ6+vpdJoN1iSS2TTPp9lgYWG7ruooqqv1cLFhuamm025L1p0hydZycNdD+XJaltPBFSTecnbvbmXa5fDQjJyaeL4hZX3Zq+XciYM65/Nn+4gc0z2o7Fele6GcnImuS35ZOaYdvA6P/uVeJKdgg6L468oxHbcermqU9lk5z8EjjEF9SfeF5ch10qj/dDU5HzkbAW4GOjxBPvMp1DgTRy0c3+psH5Yjo4d3ixdP9jk5RRAGm+FS+TR/ud31H5FM82uGpRNcI0fubtdL1Uzru30/51RC7qLnQc9gfpztVv9hPlbn2FX/iYNOsQlDOSpY3Noz/HZDO0cnKMfsSpxfD47uVnrypJa+vr0cpy2Os8B13Yf2S2ZzTMjKTjfPns9mXSFYYuQoOfHbr8E0C8oox7SPP08CYpTT2ol/HB6cRO9/qPdVOClHZ5jDOsexq+EHwt2CzneTY/+VSarjz/ycx+f5KjGSH7O8Xwr8bnLkl5SAt3sdV30vxxnu+nZyPgLKQTkoZ8hN/s8u94vKKX67BZ/7hw4IgiAIgiAIgiAIgiAIgiAIgiAIgiAIgiAIgiAIgiAIgiAIgiAIgiAIgiBfmr8Bm56qW9MrWfkAAAAASUVORK5CYII=;" vertex="1" parent="1">
          <mxGeometry x="415.2" y="130" width="139.59" height="87" as="geometry" />
        </mxCell>
        <mxCell id="TcjnYduFdrtGoyZPX38t-16" value="" style="shape=image;verticalLabelPosition=bottom;labelBackgroundColor=default;verticalAlign=top;aspect=fixed;imageAspect=0;image=data:image/png,iVBORw0KGgoAAAANSUhEUgAAAPUAAADOCAMAAADR0rQ5AAAA81BMVEX///8JnOwGbaUJlOAAaaMAa6QJn/AAaKIJmuny8vIJm+oHe7kGa6IHe7sAZqEAXp0HgMEHdrMGcKr2+vwIitEAYp/s9Pji7vRflrxCirdzosRMkbuOtdAAcKfJ3+u71OOxzuCEqccYfbAIic9NXGSYtMzb6fHD0+KXv9ekyt4Al+sjd6szhbTP4+44fa5nlrxdkrp5rczk8/1nocQAWZuDp8aFtdF2rMunwdZMiLSy0+RRmMCEs9Btu/GVzfWf1fdOsfDD5Pm9wsVmcnqAipCVnaJyvvLh5OVodXukrLA+UFlSYWnM0NI5rO/Q6vuZ0fZ2ut8P1CZRAAAVBklEQVR4nO2dDXvauJaAiZBimoACGJtPGwc6LtSGJMNOQkKm0872dnbvvb2z///XrGRLsmzLxiR8teE8M3lSRZb0WtLR0dGHS6WTnOQkJ9mS2MMMsfVDF213oq+ApRTQMQ9dtt2JvtKAUrSfmxoC0EwJAPBnp26UU9L46amrtcpZUmrVn576klCfn59JPyqXb4K6Uq8R2NqY/lavvBXqcqN6fnZebRDgRrP8dqhRRP2G6vpEfaL+KeVEfaJ+I9RvcryuNQh1k5pltdqbqeu3aYcn5GenLtGZ5sV5Qn7Emabe/a+rwgIBqCrkx/MqBF6h18qPSa2oPrBJ6A9J3Ri3ktIAhUPHhf1m+tF4zUO9fB5Xy+cXtWq1VjC0uDabPLd3jVNQMkejTUKLUbse7ts7Byok3BfWahGAVoswlVsVzheFXrTyQotR+xAg7eEoNEDMtm6C8tl5A5Q5XxTKLe5X2OETTHQhwl1391BrJU5NIM5rzUqCulkWs6uXz7lmIwQCfe8fQSvfF7W+0EB1PKaDOxruAyy/NHuiHmIEGpXzMhn80OGxVdTJfr0N6i4xhqgSLDeJATuf7QMtR/ZU164Bqo1goCNpAjQ68MC9J+o7DKrlM4YNAO7uBS5T9kNtPiLQ5GZNuUmwJ/vBy5A09WVGv37NeD30QLUurLkybeMH7dqc+rJJSC4bhLreiGq1xkMrtWRok7rMWOha6qUmGjiVehXgziGnIoz6okwLVS5f0B/C4s4PPROh66j1HgYNibrSqCJ0SGNFPfugs6vCoeupzT6Kb3JoAaCt9gNothXi9pFqr8lldYNQgG5nqrTFq3AtuVtTIcOXsZ/Ra+J3FeIB0GykpLlRKPJUKfsDQU1MlHFsXt6qAm0/anyAkUpe7zYjRiZUJIx/E9RGaJhJ3YLY47d7ogagmiwa84WRX4L/YqHquEjErebHxdc85ykGzXKMmqhxtB+7dKCB5mU9KbTVpgK3EhpRT9LUpIlbwSQkpgB2Q02Gj4uY0HEH0NEoEVrLCK1uEDeXuky6Re9+cXvrz+f+4+3tw2S4G/aQ+nVj1CbetHxq0kI0TQu7A0QQY8MY3bnbN10GganAbYxK+IPXnxx6kbRH1KFnsdBKIlSua4dQtxLUDaYIuZ89cC/BhbN16qCuQ9uzEdie1IoOqaVQ2fYUoZVUKJAs0tA6r/HQy0YlTp3W4XQKQ3mbjVqtdtloNkN4hK3rLTd0Ri3NrkBE/dLZR0TdbMRCY9QpK4X8vVkfx4ydca0JqOa3hltt5mELX0v9gpnmOuq2D6v1eNevpG08Ak6bPTK2ar4UrOsdUFNXYUKRKqkJN1FyPwt1aYljM81A4ymlRczb5jahD0lte6BaK1DV5drW3SyH69cl/RGB6kWxqva3Oxc7YF1TO0XW4llV3agiuNwq9EGpdTK1i8yziwzoehWg/i7H62Adr5qkTq7uNcXqXjMZGvDJodVGLDROHaztNSr5Vd2iCnzb6yJhvz6r0LyDHxcVMaOIhUa2dRRaWRd6kQhN1PXQQgDVcquaQuPFlqE5ddJG2mhGUTxUojZny75BTW5W2eqqbjWrQOtvffoRtPDUbjFSZuUesuqlOvSscGhArc+mg85Io1t+wDgPmton0N/W4vb9iouPQPPyspYQ6hNIhm0nFM0X/blnAQgRZRbtTAldo2u83tYGLQtDJki5cWqzPVYbhSKSJ+nN5BfQrIs5l6KqW3XyVhDc4jaGq214A18swQsgyJI+SSNfNukk03jYnnlCp7aHk+ZljRDHVF1Q1XyvWr1OptZ0fomg52yNOVw4HlM/R1Ld7E0Syp2pa7l7AA12J1tV3jahbpXL5dTQciAJqnosfEbUbW5YC2fL6yBTfFTUoSprBJqOKlio+Q9Dc+uD9JFRh/qL7q1+chxn6u5orYtTp4yygwivagR3u457XNTc3kb+TqEj6ov1Zdq1sFlHrQqws1tqqsPHR0Jdiap6x9szXE59eHXGqrpOplZb9pcoqevHQc0sUGJxd3e+TeEKVGtHQV0RvRoO1hf7lQJR9bJ8BEqcQbeIgWLtfme8z3fbHJg6mkfvWoFTWUHQLB9eiTPoMQCwu4f9dc8aaLYO3rG5K6FRRcDZPXTJIRPs8aGbOIeuUwt8H1spXYhA/dDU3G1CJpfWXnYetX0UDl0HbOLcWURV2cM+oNna8ebUH7cHLdo39f3uaavwEgPQ2rSJfzz//dMfnz5vRe9zaLq2Ye3roMvQYjbpJmPX5y+0TswvW8AWnuAGUWV3+9oV7go7pXgT/6zTE7Tkx6+vxhaLWnTBcr6/84o3EIDyZk3815L+53//6yt5+I9tQQcrOns8yEVXzDcasT/+Xir9+f79P/8kD//6/XXUHDo44vK8P+iSSZeON2niH/8uvfv6/v37f5CH9W+vUuYCmnTqPd/f2UXMKC1Y2R+/lP76H0L9/uv/6q+jFtB0fjna72lcapTWN6hsXtfv//mP19W1gK7Tdaw9n85sj8TZjmIq+XPQr9+//9e/X9WvBfSY7hDd+7m1gcZnIAUr+z8E++vXr/8mOvzFVR3tw2jR5bu9jdRCbI/rs4I9+/uvRI+9I09+SS7OvQSaqu8D3C2idyAfvAqq8e9fggf/2BI0bB7ipJ5NppvNTXr22cfv3z59e/kUJNqQQGeXe3CKKqUPN+vZlPvjy7V3JVbT6FA3SNiG6NnZ2OeV1nacawlo41Dnb4PLHOr5bbwyroKtOFwEczm4PeKAh47dOeLTbDVZuU6MRnYLwKukkoDuHvKk9TOp7Kw2fn7WCvcBYfTKyUYMmlhkAFsHvUJB9yG3S5Obglo1EB6wmd+Zv754rApE3iJ6SfeQrQ58A5Bt0ZOF4xZt5sFmSVotrXG9AcItcdgfUFX795YqukXvysCHv/ZoYNBNP6BJDxMHGysb9BxVsPUPYcNn+4DMz1uwQUMnAjKeD3+jmd6jH65IbIVECGLgPd5Hvc984eh1IVf0Jb3xaOQcDjaSth/c1qeFQng1bKBR/3oa3xrzIhehzEwqmrQg3D/0DThM7GD3bmfkjUbkf3+1GAxnbrrn/b15G49tib0M1ETvWC6uKwU78lfvmGR2uk8bYseY6XlspM2dPWKtkylR5Hjlcu6saBs5UGLM4wbt0ahzDHe3RTKlirxvv8vnNn8vjB1jJsYOtUy86eF1d1ymdKCynHf5zdz8tDkysXYoM7IWBx+k0+J4kIxXz3+t4f60TpNfVBLM9dDA6xz8zjal2CNMSvdol97lgv9xntfKk+cYSD0HzCPnCCs6ELevIQC966i6leD/+a7GvrhIHd0IDk7TDf2TY2WmMrEgVTpL9927HHL9W7yVX9BWnT6s0qo3Q0N+yxv6ty/DLm3l2uMv5ruUSEX/wqu7UlHxBsiNoGlD7C+PxizJFPNeI4YaRP6kneaOxPymQhVSbwRaG0LYdY68npm0ex6tb4wXH9wc7tnvamAyR22yKSrq3h3BzapFxe4BTAZvDXWvnVk291OqvgnxZTBHJdVseD3nuAyxdaLPFpioczL5suaPz8NMblfiHodHsMKzeRj2ne2fVdm9mINbL7wBDBtX/mrg2DPXbZuRkjNNs+3+Zf/fmFZwg8zKEWDA3mPv6CzPwqIPB33CELZXbEDP73Z6vetfmPR6vU63OxpZ0dU9SDOgf73c0XVNexPTHfQNA4d3MVH3iqZpmAn5FSJIQ+ndbSTYwKPFsN3+YWs5Lvakd+vPLYgpprjjLriSir4DZHnzx9vF/fTHUl0FRHdtZ7kkTbrf971QRv1+nzT4wXLpDGc/eJPOFV0PNFgoRLGZ5vF8vOEkJznJSU5ykpOc5CQnOclJTnJAcYdPO3TLk9SPcLatDzzL8qa7Sn1CU3d2lPrLZYmDLVXOjlI3aOp7O35YVPRu8ElU3NuNF2QUeNViV28eg+hhueC27zRlEl4Vp+3onb5YGPXWb3JlcnWiPh45Ue9ATtRHJCfqHciJ+ojkRL0DOVEfkbwR6mDROVpnzqVOxF2Trk7jJiLnU+tZ25JYYllZxR5TZyxHsJ3Bqj8a+f3FZBhuoMimnn2Y9Fb+aNRfPTv2mpbgfljerbo07t0yFjeP2lyuRh0nHd4eLnu0lCTjpZ328ujL7mjFNyi2bZ7xYvJBuSXEXN54GqbXstNDO8jvTXOon3o+wuG+E4ixdzvIqXH7umthHMV9js7s5FDP+khDGkzeomDf9a0oY+txkGDRn0lOGgiu7Jw9P4qMCZl/neaeWghKX4ekn3PzHT7vT1DbPimRHBmizL3Nbh/I6ZK5OgTi2E4mtTmwNPpU4op/d4HiiSEI4mcZP4Tl9UwSF6BExklfld3HqQ9iIoQ7hC9F3X7A6a9nIsNX+YHMAdSSUelRU9YEs6hnPruaHllSQfWJlS4lSUzeWE1v5iJiuKq4yIplNPUUZaMpjrwUtd2F6azpq7TSN8G2F+qPiyIYdgk1tflsQVHOiNrsqW/pR2ARPT8IqdGt4v0QnicpmwGAiijB0+GzErXtZcdN3urRnqtfECUNSqqktkfRU9ATfdHtZmYs3azBqIE6Xyw5e59jFY0UJY2ohzFo+oVX6V/GIlZ8tysljOJxwdVQTe3eSbUEgdBm7VEssXgpcYd3f06diMsqD0eKdBo9j7Dh+SvfMhLtQ1C7ETTSDGtEhgVD6uVYvgPX7ItyIkgPcnZH2BCFxfdKasePskaY6lOWWCfCgQYkY9GIqGcRpPUzqFlcZEBS/UYnalAWzwah0b1LR3RzdjeKvUtBPecgCHqLGR3+zfbEj+LKymchoCFaDYO4ptPnlYTvFNTthRWRIO1ONFz9ToRDa+XwxKLhgd/+FacmcVnG9soDVnSK2+TdBeGuvGF5MpfbLqO+42lqsZGKsPDtotGFVA6vNGRdS8PPsBOGGukWrjsWlvOUDgY4Qr15C2nUdXtRO3NS1MjrSYXU5fOzEw4NE4df3T6WShA8YXssD60bP6pgPnNEcWNmu8vjjuJDmr6EZLA3Oilt5i6k9gWR/Fp1n/0lNeQueZdjLnuJGnqZayomT097SA6a+kqkEFKHx81p3E7KErwXNcv+NGFxFXdfDFeWP0mNXBMPST06/tSUa+b0nRKiJsLLliPqvCunJ2wMVH3GS++LdhVQu4wM+Yr0BqzMWljZ5giyVpZ3ZjyinklmEj3FFi8I623SOCZh88Y6ilFDL+fkzCgHpDTjfTuk5r1a+bkJs8NSegyqY8jfZu5yKKduT2QzCS4SGTxZrPaUN+Jz0ODqnGi8zrk932WmDHSUfx7w9xhQW5L2TcswLBq7IJUpcJj/UbSQGnX70lCuwdQpkGuW2K0yMZM1yaBcnDojbiis98GMa8NMT7LN+BvKuplnxTL/hf6DvS30IQ+af/4KSdDWItV12xwro80Ow+pAc4k6Znsmpcd6X9a1eKzKAmqmUjI9H6xRQ2qgtQ1Wi/nbHFIf/UJAcXZvxrqh5qhl4oXP0l7Pqa28bG9D6sye/2RE1Pda/hvSWe/rkrhPYeb4t1xoxafOkJOO9YFZ1cjKEPYspWDUWt43Fs3HqG2oSSRqNm5ljoJ6n81t27xdILBma4eCWrbuODWfa6EM4Y9OBXXunY7rqb2I+oa1i8zDOWHHRqM2Hb7DcuT1LiU1eWmpdveh2HfgEJ2qMOrc6zvXU0u+lJAaZX7AUJeo2TRu3Y4TiRqLgXaefK0voc7TJwXqOtqhsXldF6dG3r2YYWr9RJELUgPasopQtzl11uBmMjuC6uWwX2e3Wr2b7NfZmi9BjTt2SRd+l+RFwgWpgw+mFqEWOjzLbGSjEaZeknU6vMTMRj/S4dqa3UWM2gpmGqaY7iQ0sJgLG3lyRdtYMWo2Xmd+EYeN15iad86a8Zr9PbB4NhqveYpml2PHv3XAx2ts50nY8QpRc9vsVm2btT1WGbR/tlmZsgZ3bkEFb5CNoRmWrpqa+tnCxxCIOWVYi8y36UMpRM2tTKRWOwM+NwleZL4dbjMjJZzeCzs8t4xJX4odYcuE16xFFviwSSFqMecaqSqbz11hL/jnM7dxlZ5vViHsK7U2n3Pl6rOU38zhXRjJhjSb2KB1yrFUlJrP1/Eq/R7b3MfJMNus18GRIs1rPtkJW4LwVljKaSnLTOEtVM2PuStFZbiRv25OLUqX/piEcEvyLxnqPR6wSiX6DLnzlQ3nE/Fw2pfSu71xslYB+OSWjAVRJlPWcmD6Hc6ub36TekMx6tKSFzc525zxmkZihie8Ncl7YM0HXta03yxZQfqATKG1sEmoVgEG3L8Ao14XXAcaJOYl5mQTi94iGLX8gtSmcBNhS7qVpj2wRO6RR034Z5AmLSaaji/aZeSTGWoc21jY0YL4kA1PV24GtX7HjRIsrbjweRUyVrMoMXthhO9CNIGC1MHHmFiKsDt4cs2SPnOuxdDJFXiYjS8cPZr/mzMjcdtPg8jlFavXnkhC83pTOp6aw2WHO7wDNadc8dGFtYLEWorkDyeJTei6ddue9rjfCQp3UVHqkhM5ZBG0vPl87llSEJA1dtuL/qDxuNIShKxkpbUPoAGPRraQiJux9hFkwh9Emviyh+SwBRAFGXsgWmbYnJr0jdg6R/g1df6vxHR65kt/AwjF1q60+Eje7sPsuMGSU8ZKbrSQdyVeoykvmoWJRclFhSxOrU/S69H8JaZ8CLOMRV8Klrwitu3jjLjsBWWtX7vCux7Na91+5gKptKpYnJpoHqBOUVNMS2a+cmkYQZQ2GM2FMi6J/Jyzfl0SDsBw9shEz0gM4vT6NaeeLJwcbLejqG5oLVQmoD7w0tlDpL4idjlPVzeCfK0yTEd1qkT4meVST+YwlRiQFj5L0V6FkPqh/+DnGe86GX1iSSLN6A+zvKEdiOOqwOguM9ZXZsGFWHJk7A14+1sFvSW15YaKE45J8/i+lGeUSiy+x8YOg8Oh3lzcWZNVDjUddfsG1sI9SHTLjjTIpoRecsXuvqFxsT/NXlPS2/cWDhMO4o4GEQhREgjirvLhhQERvEq+EPfZkxOz7pN7kO7oHiQ2luidxWq19gN9+tP9zc3j4+1Nb7L+iJU96d3cPj7e3DznIPOyTu5o3Nubu0li4bT3eJv13Smn86i8nXM2eWCJKW8Vmt4+3vDH3MVDnotYEnODi8b09gY7LdtKvZq3NzEncTPvb3Kmawr1VuT/AQ4jiE7EwTfVAAAAAElFTkSuQmCC;" vertex="1" parent="1">
          <mxGeometry x="669.3199999999999" y="320" width="71.36" height="60" as="geometry" />
        </mxCell>
        <mxCell id="TcjnYduFdrtGoyZPX38t-17" value="" style="shape=image;verticalLabelPosition=bottom;labelBackgroundColor=default;verticalAlign=top;aspect=fixed;imageAspect=0;image=data:image/png,iVBORw0KGgoAAAANSUhEUgAAASsAAACpCAMAAABEdevhAAABPlBMVEX///9q1+UAAAD20qJe1eRs2+ll1uWj5O5t3etr2Obq9vTp+Prz+/vl9/r816b/2qj18vK4s7Jv4vFg1OCJ2+HKxcQjcHlj0d+MhIJRtcJjytfBvLsASlHQ8PGS3uRq1uHA6+6vqql22OFKp7Oak5JtY2GinJvZ1tUziJJYwM0cVl1MrLg+mqViZWYgQUVVVVXn5+c7OzshISEAOj+w5+uAd3YufYe46ez/4q7oxplOSEd3bmzV0dFMV1gkUlgYYmo6TVAjOTw7OjkgKitLbnNDXGA2dHxJlJ1VT00aNTgAVl4OHB1ES0wdOj6AgIBBg4syZWswNzggAAAwUFSph2NXSjnDpoCBZEk6NDCdhmhBNypRTUVmVUPAo3x3VTlZW2AADBcAGSdhd3qji2t4Z1EvCwBiRSeSc1FRPipDMheWQyObAAAOvElEQVR4nO2dCVvjNhrHc9iODCGHQwAHct/BgbAEmAAl0OkAZWhmuhxz0uluu8Ps9/8CK9lO4kPyhZKwwb+nfZqnsRXpz6tXr17JciDg4+Pj4+Pj4+Pj4+Pj4+Pj4+Pj4+Pj4+Pj4+PjM48k6ulapXp0VK0erdVq6ePErCv0PDkuHv100m9IYmaV41YholhurLROq7XjWVftWXFcub5qiByAsCw/hGVZ9D/ExkY1OesaPhPqe1uNJtSE54NYeAC48sZRfdb1nD3J6/0MAASZRnKxILNy2Zl1XWdL8kyCBmUpE0K2rtWrPfmexPr6+suTrfOzJLCqIFihWMA2RVFswv8itcTXHWiHK5Io7Z8VZ135aVBfu/7lzXYFRgO1jSBAegAuk1kFZvtiQbnVrqyn1yvt1ibqpix/ciihC6HTlw7nPp5IXK5k5MGtP6hKAg/1EPtv9tYqe+2WxLM6qYRNjfEUtzLItITzC0EVMvN6hs2YBp3djOLHWfCrCGDby6fFoX2ktxuCxrSEfkV366WIpIRiAaXDss3L6dd/inR21RGP53+FdsKzLZ3bSe9yI7HAhjEEvcygL4WTzWYTyFc00lOs+tTZQVpAb8MLW00k1ZZhPEucDZ0W6Juj9TNZIuF1KPRe/sRuT6nasyApwTaC5sWmcF5Gn05MQ3+nBRRvJK6Zb1+XUC/kV0OhkPwJXM2xe9+GLWTLsKmhc+ihWQkzc6mIsmGBLdz9p0rfk1TDYhtzHMtvoBABSfUWuS1wjbtGNiy+ifx6x5hmWJM9VlD4LfRO1kpan0KlZ0NnBY58QaTVJjKwTeTXj4uGfngk9y5kMW14oV6MtNz1YAf9VXXu82tXSKsg+zYU2kIxErsPVdqBetR0FxVRJwQtGKkiUUM6JRP7ijcT5ALgUDnV6k8X1Af5zFvZrGQ9BrIeOuuQbQf8Egj8Q/5OF2MlrhStwDtUAp85mm71p0p1FYUMwlvFKnYDAVmO0EB7TWeoFfrmeKD7LtFXtOJXoVfjwe4cD4OBzhUa/sR3QKtVp9LWXlOXterDQRN+l6jpYtV6Q50FgS04m96dX2+FqO0LPHivjGZIjx1ZK50eSdnvS+lAXbY5/e3iMFJ9J0q/Tz0vs4CY3s8VN1aFLTXcvDhW9PiH7oojObTnqnCI3Akd6XvZNVAnQHzzn9PMKkezkVKKGZJaPlj0UkhgIZstFLLZBfjREYlq6x2rOp092Kvarw0B+onSQVcwVqPE7YphTW16E80uQ5k4bQKE4xgmt+SqjO7yWGtIPpd1pFdxc+h0WhjfLMftKBW6Y/oqsSWMqosG0WmQXTboNNKLyRccFhHJwzI44+1MycH9R8NcAp+pmr6s9wEPhEyTFZrGLztn4yTElMLQgxReKAUmlbUtYSlH0Brdz+TsjOt06HSgB68ZvutsATbzHjmxLbGpT3wmN7R5ZiXonywFK6GU1pasG1uw1BpZV866ClcjraB16J3V+gbPNkMqZa61NnJa69cXurUe2dlNlGyKsVEKkSqQSyg4KIFjLAoI1PfHWgXB5vU4X3e8LQFe2Bpq9VoAzZU3e5VaZe1bSwL6/PLEnfuyE6UgRMtYcqQ1sk1yJdKSttUsuLjZSx530sW9mwYPfdXIrEKhDOBZwDVFEa1bGH8CnExEIpVsyq77jeCWsSU41RoWkCLGbKNhcKTW6qYkSSKHFp4zN7d3Q6nuP5wDdUzE/ALoT3CCc+C4oaitGMNYcq41hCGNEZWMselo34K8QM/zH8Ox2KfPMDy9+xSOxe+3OOIyK9if3ECYcyMVTqyCuwKCJKe1Z9JqBHvei4WhRrFwHP4LP/VuAPHayeX5Sm5sAsEZfFbEpVREsQYWtvIlHtYRu5VMjkqFFSc1yXEtlbGpLs1SKQHbDdtEUwmCr6pWsdhQrXOSVnwTs3gxI6lgUzVxlhepYAm4Kea2hVY3cs+Lh+8fekonfCDaFZ+ZjFbLXqQKBscuK+etgGDKnVas+Ec83vvrbvBtULt8hE6rd2Yh7ESSol5bOuqFXU9WFTQ7PRutoFitPwcwOG3DeL3+ry9f3wfJ243A4QSkcjuAjckrBWQ9FxBkzGGWlVZBVvgJXbOD5jZvBMstbJMI3BcsWsrJkFt6gAqIWkplWYC2Hw+x8O1IATmfvIPizGvLC4Pg3y40sGHomVPEVjKpXLdQ6ObIk2G5pSVidWEJy5FuF+UMiXkH01g4WLXaxqesr+7YixoEb5wqtcTYoboKkrNiUgejcW6xSwjJUUu7hAI4plTQlEBSy2RYFrFocJjDk7MxdlrtOpQqSrSWIfmhpviGGtNUBVOBauaOWEDXkLohDAAmj2WtFVuuBQKJEEo+7FDSqmRrVqoWeXwDumb1tTEY0qm7JIuBjzdwGb3FPO5S01BYtNQKGlax+Bu7kaxXiaGVS62WFnEsaVCuw0+YU9i8uioW1CkfWRpKgR0DTVapL0FP3qhV2UaDchnwQNrPWF/mXCun4MyKIyU+S3BIg/5et8KAL4D0c7hhwNgJkzZaBVn0PWu34536ZoYDzB+a3NJoablgsDhcbEZIbsklYNwod6C/5timbzmFtlY4q7BIWTorwNiptGC0NTosXQ75KVrRXfXCWQU5YYkB560Yy6ULzFBg+OMk9inZlZVWBxHHRIkVt1w2MIHxPzYFYNQ1TqA3Jm9XWYZzCqPcgZvduOqBix4KMPdaoyG+n7hW43rbS6V6iALGrIzRguU0CROyY1NSWiKme4zTnFNKWvWJdcgtm8kRUF2Sve/opizjWcwoamuX5k5o1OqniWvlHkx+wOBs3CdbiKszFr9q9HADj+k0A1S1snez5AwCCVyi04ApxDJqVbVMNDgGrFBTCuuu9D3IvVnh8pxGTM6dMQSja7S0oriYas7GcBHdBe7Nyr4LYkrlCvoLRhsZn4aHheeoGaIU+t5AyLZYYTsKQsw3GQSubVIJRkHf7X7RAmb4UsUyz830EYOH1R3GvkIY327QKjkrrTCT1aFWmGFQGxVa5eFJOHDtmJjBMKs6pqSVW3+VG0ZCShAqf1QVwWih08rLSpiDqN8cv+qMsZMsDugkGsDFjy9tN3sasoiChoODg0LAkVZeFrKsUgwq5j+BRuDilw8P97cXVLRipV48fPuZyq4GnFYa14xLbdli3wfNGaxxnJH4+SEei8XuG1QCd1Z6iIVj8duBVXWeoJXGy9oubuDALI0aMP8JuFFu/2NY2aNAUatwOP5IYW8RZorDaZYkvG3msN0AjwlUhn+g2r28C8ZiP4crePFW3k0Tp7H+jLEcjevArATZ148zr//owWQXRz6u3furh9p2S2cc5MVHpP3nTzQ6ISb/q3XuC0sGFh3E8XYOy/ybY3fVCf0FHUzsMSTS0aoZ+gTd36uPFKTCxZqWduFkj4jNJAcTh2juGPTi8YePdePmWq9wlfTH2x4V345fXCdfvujI21tGDbjVSM0NicO/D5PU5oNB9hKdMUZnJyQmz2CRKIg6m0lbWSYub4G5nlKeIci2MXXwCHZuTOxETmeH5F6ITfFgVn0o5a/U7UeUwO5lwK/PY6Uq4QsgxFjY7QA4Ox7QcVeE4y48gt8NhNuLsIjbicBknRcQiOKfqcAlJmz2oDkG/EZRK0LeM2VyIeYNRYg8KcOF2WVTwG/gMqZEZSit4wTBe4paETYUBTndE5XRQh5vEktWBejcEKEEwqhJaX2QslakLXlBJhUpZBei0YVsIUd4dEsewIghFypA8VsLhQgx4senUSmtO1M+pchi9x83SnwRLpBNIkquKSwgxZfyxsemtWD6KmKFlm+ne6IT0bBsUUc77/u9iXuPaO2Tof5UnNd6jFYx3K/1jCCE+HU6KRn6Wnm0i3FY5GGxRyVPiMPSdvv6nEJ1gRDh6VEcbe/x/HwJKdVlt1/UMdS18pL/1O+S9PSMmEVW8Blr5X5py7ChNEoIsiwhzKRkrZp0poOTeOLZ7a4F097bBdemyZF8layV9f5250zi6XB3YjHmkd6tWOSdzog1alpN4sRMN2Jh48co9okIYhERTBFjrJ8xcQE4py8VNAynbeXyhOyU8+GUWMQQelrd0FdKbqsj08L0vyEOQwfbw2RoanVKUyENhKSJFsbSIpYc2CbHLNtvOjKfZeERmjlkPdGc9fFCDF+wKeGAt1YLKuXkrDFq4yA7wRMzF5aJajk8JKxrcfQOk8o5eyKD1pKXcgzwxIh282a5OI7hI04fPMliH9flmGDJwe5IBVpxO1ue9GHIC91SfrhdC+WwUqXlA3fHQGZzSC8l7yWXkSpFHAsVoPic1wQP3xmzkC10I7lcpHuQ9Xha5lIhkivl88uRbsF1Ec/0Oa/nyRUlrbAnms8Z5HOa3DCp82SeF21KWyDn+sUcKhUqSRlwNet2TINjKntr5/odJmNaFBwWW34R7/MKVCk8FIc9S3kOST49GuVX5/n1CVo052V7NauV+X4nwJi1p46EPD+JQ9WeJYmNJxrWyzEraFhP27aNO/h9frE439EBwly/7MXIcf8JvVBYeQnTmzEVybNlAWmiCdFnyJ5XsUD5pYRWY/YkT91QkP5jfEnF/NP+vi+4DrN4YeXx1e3EFrueJ/WPvVcPu6su+yHI7D7Ew/GHFyVW8nscHWX/o2F+kQQZFjR+9JRHW1+Qd09+UA5qjz+clQXr19GPeh8A0tvvr5Tj3ePfX8z76Ds/4uph9rFXj39e8LbGhd5n0vg9GUj+IWt8H+u9mF446MU/3ctS9e4G6fR2v8yaX0Y/0glaFFduVeX4M40MMnbXi9/Nug3T4jre+xyXu+A3ebKSKG63Gk0WvaZe834XHr3fBOokNk6qoycqi7fwxt7XV59nV/vpMgjfyU+Jf9C46ONK+6bfKDebHFDJNEVp/+r0qKbLKQygWPGvL8e5d/77dzwcC/8wbkhI1JO1tcH24eEl/OdobS2ZxqReBo/x2B9UHnL+/yBx2Is9/OxxLFv/9u1lzZ0H7Wm+w9PHx8fHx8fHx8fHx8fHx8fHx8fHx8fHx8fHx2f++B9uFWgmbfB61wAAAABJRU5ErkJggg==;" vertex="1" parent="1">
          <mxGeometry x="643.0699999999999" y="230" width="123.85" height="70" as="geometry" />
        </mxCell>
        <mxCell id="TcjnYduFdrtGoyZPX38t-18" value="" style="shape=image;verticalLabelPosition=bottom;labelBackgroundColor=default;verticalAlign=top;aspect=fixed;imageAspect=0;image=data:image/jpeg,/9j/4AAQSkZJRgABAQAAAQABAAD/2wCEAAkGBxMSEhUTEhMWFhUXGBYXGBgYFh4XGBcYFxoaFx4XFxgYHyggGR4lHRoXITEhJykrLi4uFx8zODMtNyktLisBCgoKDg0OGxAQGy0lICYtLS0vLTAtLy0tLTAtLS0tLS0vLS8wLS0vLy8vLS0tLS0tLS0tLS0tLS0tLS0tLy0tLf/AABEIAQoAvQMBIgACEQEDEQH/xAAcAAABBAMBAAAAAAAAAAAAAAAABAUGBwECAwj/xABREAABAwIDBAYECAkJBgcAAAABAAIDBBEFEiEGMUFRBxNhcYGRIjKhsRQzQlJyksHRCBcjYoKissLwFVNUk6PS0+HxFjRDRGNzJWR0g7PD4v/EABoBAAEFAQAAAAAAAAAAAAAAAAACAwQFBgH/xAA4EQABAwIDBAkCBAcBAQAAAAABAAIRAwQSITEFQVFhEyJxgZGhscHwQtEVMlJiBhQjosLh8bJy/9oADAMBAAIRAxEAPwC8UIQhCEIQhCEIQhCEIQhCEIQhCEIQhCEIQhCEIQhCEIWpNghCRYjVFjfRtcm2vtPuUWEssDi+NxsTc8Rrr6Q+1PWLyXeGjc3TxOp+xN5Cxu1No1G3hwOMNy137z2zkeyFYUKYwZjVPtDiOc5HtySWvlO4j5zTuITioS2uytMT7ksJMbx6zSN36J9nlaQYJiXXNs7127+0fOH8aeS0drfU6sNBzIkceYPPsyIzEKNVolufz56J2QhCnphCEIQhCEIQhCEIQhCEIQhCEIQhCEIQhCEIQhCEIQhCTzzBoJ4D2ngF2e6wTNitTfKwcAC7vO4fb4hRL66FtQdVO7TmTp84JdNmNwakTW5szyd1j3lx0+0+C3oIwX3dbK27jy0/zsucknoho3DU9pP3aDwWixJqspVWOjEW5k/qdrmeAMDnmd6scJc0jT2GiQ4jBcl7d3LkP4sk1HUuieHt3j2jiD3p8NOcmc7ibAc990xTx5XEeXcnqT6jC0uyMBw3ZTllu0kciNyUIIjdop7S1DZGNe3c4XC7qL7KVtiYjuOre/iPLXwKlC2drXFekH+PbvVZUZgcQhCEKQkIQhak23oQtkJjrtraCEkS1lOxw3tMzc31b3TNP0q4Ow2Na0/RjlePNrCEIU1QoN+N3Bv6Z/YTf4aU0nSVh8ovC+aQfmUs7vdGhCmCFEp+kGkYLvZVtHM0c4HmWJsi6YMMe4NY+Z7jua2B5J7ha5QhWAhV9X9LuHwm0jalhO4Op3MJ8H2TfJ064aN0dU7ujZ+9IEIVooVTP6eqDhT1R72xj/7Ckk/T9Tj1KOY/Se1vuuhCuRCqTZLpmFbWQ0pojGJSWhwl6wg2JBLerbppqb6DXgrZI/jihCTVMoALjuH8e/225pgkeXEk7zqnXEGFwDW2v824voNNP43BJG4Y88PaNPJZrbdO6uKgp0mOLW5yBvPPTIc9/DWXbljRJOZSNKYIWgZ5N3ADj9w7VtXUpY0FxF+waADiT/kkYdfjf2qmfQNjV/qskxLQdJ4kAkGDo2c8iY/KpAd0gyPz5vXeonMh3aAaAbmj+OKa8SZud4fb9/mnunY9jHuI9Ettbde+g7eKbKll2Efxpqu3Ae17KtQnG+S4OEEZwMuBzjTTQCF2mRmBoE1wTFjmvbvaQR4cFYEMge1rhuIBHjqq8Uy2ZmzQAfNJb9o9hCvtjVDjdT4ie8ZeY9EzdtyDkpxXEoaaMyzysiYN7nuDR3C+8nkNSoBU9NmHCQRxsqJrkDMyMAG5t6LXuDiezKobs5PT7QYnOMRlkGS/wSnDurbkBdnbzzgBhNiCfSO5thbuBbE4fRkOpqWNjxuebveL8nvJcPAq/UFJOkOSvNOIsNjcZ5HAdaHMY2FjSCXEvOpPqgAbi47wL15H0QYjV64jiROt8uZ9Qf1y0NO/dcBXghCFWGG9CGGx/GGeY/nSZW+AjDT7SpDSdGmFRizaGI/TzSe15KlyEITVQbO0cHxNLBGebImNPmAnVCEIQkbcNhEpnEUYmLcpkDAJC298pfa5FwDa6WIQhcpYmuGVzQ4HeCLg+BTLJsZhzjc0FKTv+Ij17/R1T+hCFHnbE4af+Qpf6hg9zVr/ALCYZ/QKb+pb9ykaEITdheCU1Nf4PTww339XG1hPeWgXW2IVWQAg6m9vv7glhPDz+5MuKRuMnG3DS4t/rdQdpVqtG3LqQJcchlMTv7vWE5SaHOgpN1tmkg+m46nl/mT7O9awSuYczdPt7DzXRsTGi7zc8GX954e9aTTX3D/LsaNzR5ntWUfNPDUq1AxzQMLR1nA6kuG4uOZBiZAOEATOGeQEg+HYuZudTfv7UooarIb3NvmjcfPcki6shcdwuOd9PPcodnWqNq47cEu3wS4k7z1cJ7ji5ylvaCIdp4eqdP5RDmu9G+m6+/n96ZqqQNaXNGvI6i3O+/2eKWxuEYOuZ5HD1Wg77ncSmbE8Vgpm5p5WRt4Z3AE/RG9x7ArC+uqtTo2VYc/OWgAkZ5QW5zxbJAyxNJ0apMa2SMhl8zSBP+y9SGiQPOl229oPuCquu6TaNhtG2WTuaGj9Y39iS4X0qOJfaJkY9Gwc5zyd/EZfcrKwtrinWFTAYE6wNxRWq0y2JXLFNgop8XrKcVraabrRLCx7NJGzAS/k3hw9JpdbLa+ml7G0rotj9pKXSDEopG8pXuk05WljdlHcVI8RgZHtDTvcGkVNHLE0EX/KQPEuYX45NPBT9aNV6rSLE9pYrB9DSVA5xyiN3fd8gH6qWM2wxVvxuBy98dTG/wBgH2qfoQhQJ3SHK02fg+Jj6EHWDzBstH9KUbfWwzFG99IB++rAQhCr4dLVGPXp61n0qYj3OK0/HNhY9Z0zfpQu+xWIhCFAG9MeEH/mHDvhk+xq3HS/g/8ASj/US/3FN3QtO9oPgFydh8J3xRnvYPuQhRD8buDf0z+wm/w1n8beDn/nP7Gb/DUnfgdK7fTQnviYfsSWTZKgdq6hpSe2njPvahdgph/G5g39M/sJv8NcZemPCBuqHO7oZP3mhOmKbBYXKzK+ip2tuCTGwQnT8+LK63ZdQ+o6M8KLyWQvDeDeufYdupv5kqHd31G1aDUOugGp5xw5+8BLZTc8wEql6UcLlILqksbcgAxSkgcSQ1h3pZjPSlhlmBtUHBwucschsDuzWbp9HfzCa4+jPDf6Le2nxsv2PSuLYjDm7qOLxBd+0SqF+07PDU6tSamp6o03AzoNIg8CpIovkaZJD+M7Cx/x7/8AtS/3Quz+lXC2+rKD3Qyn/wCQJ2j2Xo2Wc2jpxyPUM9+VLoqZjfVY1vc0D3Ktp3VG3yYxwy/YDB0z6Mu9QnSxztSPP7qInpSid8RTVkvIxwBrT3WN/YkdRtpikt+owmQcnT5vOxDPep/dZSDtBjxBbiH7qj3e7R5Su9ERvjsACqqpp9o6m4JbTtPBj42eTmF0g801s6JqyRxfUVMVzqXAvlee/MBc+Kuld8bmBAduPVi9ubv9VNt9oVeie+lgZhLRDWa4jxkmRmdNM026kMQBkzz9lS34rImsJNQ9zgCdGBoPLQk+9Vvh9K6TNlB0tu7br0aqx6GsCNV8K09Tqf1ut+5Xey7irWL+kMxHnP2TVzTa2MI4+ys/pgq/ghw6vt/u9WGusNerlYc4He1lu+ysKCZr2tewhzXAOa4G4IIuCDxBCiPS3hRqsNkjbYO6yAgnc28rGlx7A1zj4KicI20xahJoIZiCx7ogxzGSFjw7KWsLwbC99Nyt1FXpjFsbpqVodUzxQg3t1jw3NbflBN3eCiVV0t4cLiEz1LhoRBA4+1+Ue1QKkwm7uuqnmoqXetLIc9vzYgdGNFza3sGgcgrGns5xHXMctVTVdsMBIY2ecx9/ZPsvSlM74jC53D/qyshPl6RXKTpBxF3qUlMz6c73/sMCaEKSNn0hrPzuUR21650AHcfv7JxZtpip3/AW90cr/aZG38gurdrcQ+VLD+hAW/tSOTShOCyoD6fMpk7RuT9XkPsn2La+qG+QO72Ae4LM219UR6Lg3tDAT7bphQnBbURo0eCbN7cH6z4/Clk2LzvN3SvP6Rt5aBbYbQyzuIYTYes4kgNHaefK2pSnAcG6+73ktibvI3uPzG9vM8FK4YwbRxtDI23IHAcyTxPaVUbU2xTsopUm4qp0aPfkp9hsypd/1KriGcZzPZy568NxXKhpcrMgc4sGrnE3v4cOxo+8ruKZ7gXhtm68eA966BzXENbpG31jxdwv3ncB2rEtWS1/DNaw4DLpYexYesaVbFWuXl5gkkQA4tG6RAptJwNj87yTmAFrKbejAZTEDIRw/wBnU93NZhFonuPyiGj3n+OxaUDm3LHeq/jyI3H+Oa3rXZWsj5N173a/d5pEoVesbWvTYBPRtAI3EkS/xxFp7NNyda3G0nj7aeiVwymJxaQCNzhwXWqgjyh7L2O8jXKeRG8JCSt4ZnMN2m3uP3pNG9phpoVWzTzwzm5gPDjlqAROZBlDqZ/MDnv5pWx2Ztg5t91nMDT4OGl0iewtNiLHkUpLon7wYzzAuPLeEOpuHWsI7XWsOdjwUm5ZUuwC2HkaFr5y/c2ocbTvmSJ3bwlpDMtO0ekarlMWEgtFr728u48imzFKjM63ie/gPJLqoBl9QbDhuvyvx4Jjcb6nio0vdUdjAGeYERiiCcpG85DIFzojMJ1gESFi9k2/g7UGWjqJ7EGWbKDzbG0WP1nvHgVttDKWUlQ4aFsMpHeGOIUo6IqLqcIpG8XMMn9a90g9jgPBX+xR+c9nuo139PenzaijM9HUxN0c+GVrTycWHKfA2PgqA6Q3NixSmr42F8dXFDUhoGt3tyODR86wDu9y9KKh9oaJvUQNe3Whr6ii1/mpg6SF2m4AdUGngbLQU5xiOIVfWIFN2LSD6LhHtJSnQzBh4h4LCO8OAThT1LJBdkjHjmx4cPYmmeBrxZ7WvHJ4Dx5lcaGgjhzdUwMzb7ff61uy9low2rImD4g+GYWPLqBEtxA8yCD3gA+qkSE1sqXDj5rqK48gnMJTOIJehN1TWyZfyYZm/PzEeTdU0zYhiI9VlI/ll6wH9ZwHtSCY3HwTjW4t47zCk5T3hOAOeBJNdkfAbnP7hw+kfC6xs9iEFNTxmVolqrXe4N9BpOuVgcfk6NuN5BO5KZNqczr9Xn53db3DTzVNfXt0f6VpT6x+p2QHdmZ7j3GFbWtpas69xUB/a2T58PmYT/FEX2axoa1osAPVY3+N54omkAGVp9G+p4uPM9g4DxTJLtk7KWthbY77E+9cKfassN+oa4jd6R87blk6uwLvOHguf+d5OcfpaBOXHMYshk3JXzdrWw4wNBBj/vopC9pHoW1vqPcPC/tK36n8oGb9bH7fLXyTJHtgcxcIGZuJzH2cvBbR7buuSIGgnjc3Penx/DdQnrOGZEDI9Rpybrq7LEdJ5kzw7Yoc/A68dE94oCJXX42I8gk4YbE20FrnvTLVbZPfo6Fhtx9K47iDdJjtPOYyz0Wt45W/ab+fYm6v8M1K9zUeagAJcecmT2QD3kCOa5+NUGsAAJPZ91ISea7VEOW2+xsQbW0PNQtuOzjVryD4fcuzdoqmx/LO07V2l/CjSxzXVRiOYOE5RM74MpDtusmQw+X3UnBWs8gZ61xfcLalRGfG6h4s6d9uWYgexNk0pcbkknmTc+1Ns/hJp/NW/sy/9IO3R9NP+6PYqX1M5f2DgPtKTOkA3uA7yAoqsqZT/htrcjVy5Nj1cVw7eO6n/dP+IXbbnFWMoZ7EOLm9WAD885b+AJPgrd2dpOppKeL+bhiZ9Vgb9i867QAVYDI3nLHU01O4WsHyTdfffvyCJoHA5ieS9NqVb2lO2Baydc51yy5ZZZclIFapWaHPAHCNIOaFWW12EH4TXhgJM9PTVjBvvLQSAPDW8ywxDtzBWauBp2l7ZCPTa1zQeIa8tLh4ljPqhSEKhntIJBFiDYjkQtEtxhhbPKDvD3g+BISJa0GRKwbm4SW8EIQhdSVkJxp42tGmrufLuTe06paDdRLp7mgAb1KtmgyTqu67Rj0TbekYcVkSlV7OqVLIldUALn1iOsSMJXYXb5Pit4G63SfrtCLIE5G5OtIDmuO5Jgwuiyx1u5cesWOsKbaHAyuwlPVj5wWkjgBa91wLisJzLcIRHNbOddaoWHGy4BuCUglJ5Zb6DcsSy37lyVhQt8PWdqoNatiybotcEo/iha5kxyAm/wA2OPOfZIV6FXnXZKqc/GqWlt6DaiSo73OpWe7qj9Yr0UqCsIqO7StfbmaLDyHohCEJpPKm9unR/Dpgx4cRkzgfIdkBynwsfHsTAmqWqd/LGItf8qWYi/KOQtb+oT5J1WjsamOg08MvBZDaVLo7lwG/Px185QhCFLUBC6MkIXNC45ocIKUCQZCWskBWyQLq2YhQn2h+k/O1S2XP6glSwuQqOxbCcJg0ag3J4VmHeuiwtetHNHWt5pPRv4HwXekbxHit1hadaFg1A5JQo1DuK4arOK6LKTmoK5ueTxTjbV51yTbrho0Sh8wHak73krRCmU6DaemqjVKzn66IQhZOunZZOpoJP0cyNmx+JzHZmxsk1G67YnRnXiLu3/YvRS869B2HOixiRj97IJSDzBdGA4d4K9FLKVHOc8l2pOa3NJrW02taZAAA7IyQhCEhOLzr0hYPNT4vJWZLU8lQyEOuPXkgY43bvt6RN7fJK7rP4RTZGVdO4PcInx5g25t1rHEF9t18pjF+xc6WfrGMePlNY76wurjZb8nM7D7fZZ/bdPNj+0e49St0IQrZUKEIQhCEIQuoQhCFxCEIQhCFlYWHSAaEtB7XBBy1XQCdFlCyOawhcQhCEIQsrCw+TKC7k1x8m3RMLoEmEv6Garr8WqZBo1lM6IcbjrmG5PbY+avVUH+DVH+XrHco4h9Zzj+6r8WTc8vJc7UrdMptptDG6BCEISUtVn00bONqxQgktJnfA13J08bi2/C3WRxjxtxVX7H1OemaDvY5zD4HMPY4DwV8dIERNDJINDAYqkG17fBpGzH9Vjh4qjI29TieI0+4ddJIwcA3ObfquZ5KbYPw1xzkfO9V21WYrYngQfncU6IQhaFZJC5VVTksGsfJI7RkcbS+R57GjWw4n/RaYhV9VGX5S46BrRvc9xsGjvKvTZzCm00EbMrQ/KOsI+U+13a7yL3t2KBeXgpDC383pzVps+wNc4nflHmeH38FTNDsZjdTr1cNIw7uscC+3cA4g94and3RdiYFxXwOdb1XQ5Wk9rmi477K5kKmNxVJkvPitELSgBAY3wBXnLGfhVA8MxCnyNJs2eK7oXb9x3g2B09bsSmN4cA5pBB1BBuCOYKvyspGSsdHKxr2OFnNcLtcORBXn/anAjhFc2FpJo6m7obm5jfcAtudTYlup4Pabkgqfa7QdiDaunH5/wBVZe7LYWl9EQRu3Hs4FdVwr61kDDJIbNGmm8ngAOJXdbbA4M3E8Se6YB1NRAeidz5CbNzDi27XHkRGAdCVYXdx0LJGp0VVYWv8zUg6DM/OazgGwtfijRLK/wCB0rtWtAJkkbzy6aEcXEDcQ0jVTSi6EcMYLP6+U83SW8gwNTrP0qYU2bqTVAm9i8Nc6IHd8YBYj84adqmUbw4BzSCCAQQbgg6ggjeFnHvc84nGStbTptptwsEBVnW9C9KLuo6iemfw9LrGeLTZx+soPi1NVYfK2Gva3K82iqGfFydjvmO8B3W1XolM+1GARV9NJTTD0XjQ8WOHqvb2g/aNxKco130TLD3bk1cW1Ou2Hjv3jvVKISPDI5YjLSzfHUzzE482j1HdxG7mBdLFpaVQVGB43rHV6TqVQ03aj556oSbFT+Qm36RSbufVnVKUjxs2p5v+2/2ghFQwwnkVykJe0cx6p+/Bnj/393/pgP7Yn7FeKp/8G6G1JVP5zhv1WA/vK4FlFukIQhCFwqYWyMdG4Xa9pa4cw4WI8ivI2HufT1+SVxLmyOheSSbkEx631sCB5L2AvPXSFs1GKvF7NAlDKeuhI0OXNkn8C57ie1rUpji1wcN2fgkvYHtLTvEeK2QuVDUdZGyQfKY13cSLuHmuq1gIIkLCFpaYOoWKVrXV2Htf6pq43dmZty0eLrJj6T+kKoramSKKVzKWNxYxjCWiTKbGSQj1rkXAOgFtL3JXY214Y2WL42CRk7O+M38fnW7E5x9E8WJMFbh9W1kU139VIy5hedXRZmnXK643braneaDaQIrSeAWp2Q4G3gbiZ9Vp0L7TVlPVQ0dSJjT1LXdT1gdZrmtzB0RdvYRoQNPSB7/QSiOyWzM8EdOK2obUPpgRDlZlDLtyXc46vcGEsB9HRxuCdVLlAVohVn0/UQfhnWbnQzRvaRv9K8ZH6wP6IVmKq+m2va9lPh7Td8sgmkA+TBHfV3LM7ceJYV0NLshvXC4NGI6BRIH1T3JmwHFnU+DYoGEiV9RFE9w9YMkzA37w2Rv6RTwSmzC3Q01ZJHVtvQ1oySm9hHJfO19+Ba8XvwD3b7WVztOmS1ruE+cfZZ7YtZoqPZ+qCO6cvPyKgOD4VLVTNggaHSPvlaXtZcgXsC8gX7Lr0v0QUNdT0Rp66MsMTyIszmuPVkA2u0nQOzW7CBwUbj6BqTOHCrnybwAGZuyz7W8cqtejp+rjZGHOdka1uZ7sz3ZQBme4+s42uTxKpVokpQhIMZxSKlhknneGRxtzOcfYBzJNgBxJAQuKl9tsoxypDeNPAX/TGQC/6FkjSSjqX1MtRWyiz6l+cN5RNFmN+rbvACVrR2LS2g2e3zWS2nUa+5cW8h4aoTXtVJlpZe0Nb5uA9106KP7cvtTAc5GjwyvP2BOXRii/sKZsmzcMHMeWfsrT/B4py3C3uPy6iRw7gyNnvaVaCgnQlBlwam0sXGZ3nK8D2AKdrMLaIQhCEIVe7c4aHYlSEj0Kunq6CV3IOYZIx9YOVhKG9KAyUbKoAk0lRT1ItyY8Nfu3jI990IVJbIyOET4Xiz4ZHMc3iLk6H9LOPBPqT7WUnwTHp4wLMqQJG97xnJ+uJB4rutFYVMdAcsvncsltSl0dyTuOf380LhguI1WFzOmom9ZA83lpSbD6UfzT3DwI0HdCer27KzcLv+KPbXT7d+JneOKs7ZzpNw6rFuvEEm4xzkROB3WDnei7XgDfsClEmKQNbmdNEG78xkaBbvJsqCqqGKT4yONx5loJ896TDAqYf8FntPvKqnbLqTk4d8j2Ku27box1mu7oPuPRWXtN0q08V4qBvwyfmw/kWci6Tc4djdNDqFU2NY2YnyTTvE1bN6x+RGODQPksGlhvNgnjqbZIYQyN0jsrS1oyss1z3SZRoSGtdYcSR2pRUbAUz25esnBJDnO6y+dwv6TwRYkZnai3rHmoteoyydhmXxrGTZ9+Z04KXbtffsxkQzhObo48uQ13mMlW/wDtNVXv1x+q23llsnSl2oa8GOrjDmO0LmDXvI+0WI5KVQ9GtKPWkmd2XaB+ynFmwdABYwk9pkff2OAUUbTLTk4nzHmpj9mU36tA4EZEd4RsttbW4exrI7VtJYZGF9pY28mPtZzey3YLKSzdONGwWkpaxj/mljAPMvB9igtVhgoJY2sc408xLQHG/VS7wAeIcLjvG9LVZULalds6SmcPEa/B4qqub2tZVOjqtxcDpI7hE+Ck7unCB4tTUVTK/kcrW+LmlxA8FFMZxCrxKRsleWtiYc0dKz4sHcHSG5zOt37zuBIPVaqZR2axhl5xen+1BuNsVKgwsGHvk+0IQhCsVToUY28f+SjH55PkP/0pOoh0gP1hbya8+ZaP3VDvzFB3d6hWGy2zdN5T6FejOjaLLhVEP+hG76wzfapMmvZil6qjpYvmQQs+rG1v2J0WdWuQhCEIQmvaTD/hFJUQfzsMsY73NIB8yE6IQhUZt7RtrpMOqWkiaWgklhtY5padragRv7w6Ru8akdxaKKtZM3NG649xsDY9uoTVtnR10b6izi2nw6pkbE4HK6MVT87WtI1ItlPZmtuXPYqsY6Dqho9ji4jmCfW7d9vAcwrHZtQtqYOPtwVTtiiHUhUjNvodZUgQhCvVl0IQhCFyqKfM5jw57XRuztc22+xFjcG4IOoSLGtrqsSspYImCaQta149LOXnK3Ix2jTm0sS5OSzs7Qh+N4cTyl/smPkHtKqtp2lJzOlIzEK82PeVW1Ohnqmcueq5bZ4ZjGHPph8KE/wghgyxNAExt+Ss5u430Ol7HQWTptTHiuGQNqJ2U08foh5jzgxudoM19C0mwzAb9NNLyDptxyGH+T43PHWNrIagji2KLMC48gS4W55TyKlvSDNC3DarryMjonNHa54swDmcxbZURpMOoC0oqPG8qhqitqsSa3rGshga5sgLQc7iARdpJ3anWw38U+lFraLC1FrZstm4Wd6xd7fVLt4c/QaDgsrCEKUoSEIQhCFCdp2GatZE3f8Akoh3vN/31NlH8HoOtx6mZzmgkPdG1shHkwqv2mYojtHoVbbGANwf/k+oHuvULW2AA3DRbIQqFahCEIQhCEIQhVptlhPXSYpSAEuqqSKqjHzpaYmMgfUpvrd6rev2fZ/4fVMc5oqaWP0mHUVMDWMfe4IOZoJIO8h/arj21cYKrDqsXs2oNNJb+bq25Lu7BI2IqMYhhGShqaZoAOH1nXRDcBTynrSe4RTTt5Xj8nKRDXtJ0kJqu1zqTg3WCobX18cLQ6R2UE23Em+/cAeAK0o8Rhl+LkYTyBs/6rtfYlV1yqKVj/XYx30mB3vWmIqB2REcDPrPssa11It6wM8QRHhHuuiFw+Bt+S6Rn0ZCAO5jyWjyR1Mg3S37Xxtd+xkXcTt7fAj3hJwMOjvEH/HEu641tIJQAS5paQ5r2OyvY4cWkd5810jzfKMZ+jG5vvkctkECo0hwy5oDjScHMOY3iU3twOC3ps6xx9Z8hLnuO65cTceC7TYeH9WHzTvZFbq4nzOfEy27K11yLbt+7RKkJH8tSy6oy5fPNO/zlfPrnPn8hCEIT6ioQhC4hCEIQhC7dHlGJMfY7+Zp3yHvI6vXwkC4pz6FphJi1c8DdEGA9jXsabdhLQfBVu1D/SaOfsfurnYgPTOP7fUj7K8EIQqNaVCEIQhCEIQhMG3VC6agqGsF5Gs62Mc5ISJWDxcwDxTBXV8L6yledafFaR8DuRLR1sWa/EsmmbbmQp8vM+3uLyUjBh1nMkoqx8tM/wD8u674rE7y0kdlrDghCc4M1rP9dt2P/wC7GSx9uzM1y2TC7auGSskfo2OoySkWsIp3tb1oN/kmTMc3aDxNn9aW0rirTB3jVY2+tjQqkRkcx2f60WEIQpKhoQhCEIQhC6hCEIXEIQhCEIQhJsQxGKAXkeG8hvee5u8+5cc4NEuyCUxjnuwtEnguGNYu2nbctc4nQWYcl9bAybuB0FzpuUl/BxpXOdW1Lho4xsB4F13vcBytdnmqtrqubEJ2QwscbuyxRjUk/Od2215AX7SvTXR9syMOoY6fQv1fK4bnSutm7wLBoPJoWdvLjpn5aDT5zWt2fafy9LMdY6+3qpMhCFEU9CEIQhCEIQhCbMawOmq2dXUwMlbwzNuW34tdvae0EFOaEIVP4/0EU0hLqSd8B35HjrWdzTcOHeS5Qyr6LcapfiSJWj+ZmsLdrJMt+4Ar0mhAJBkLhAIgiQvMWHxV0TnCuFRTtG576F0jNN+ZzS023ajN4J1gnhk+LxKgf/3Gz037bXL0QktVh8UnxkUb/pMDveFIbdVm6OKjPsbZ2rB3CPRUR8HeTZs+Hv8AoYjHc+D2tKzJSVLQXdRmaLm7KmnfoONhLf2K0sb2ToALihpQefweP+6qy2kwWmb6tPC3U7omj3BOC/uP1eQTJ2Van6fM/dMk2M5KdlUaecQSOLGyENDXOF9B6X5rvqlKsHqZalnWRUk5ZweQxjDa4NnyPa02twKhLmD4QGWGQOcQ23oglrdcu7gPJT7B8Hp3b6eE98bT9iV+I1+XgEj8ItuB8Vg9YL5hCz6ddSAeNpiR5LLxYX+EYeB24hHft0YHFWFhGy9C616KmO7fBGf3VK6XZmijP5OjpmfRgY33NSfxC44+QS/wq1/T5n7rzU/a9xeWRwNebkAtcXZrHe0ZAbEcwD7k40n8rTm0OHPseLoZGj67i1q9Kxxta2zQG9wt7l2SDeVz9XoljZ1sPoHn915/pOjnG6n4x8dK07xnGYDs6oOPgXBSPCugqlb6VVUzTP3nLaJp775nHvuFbqEw97nmXGVKZTZTEMAA5ZJh2b2Ro6AEU0DWEixfq55HIvcS63ZeyfkISUtCEIQhf//Z;" vertex="1" parent="1">
          <mxGeometry x="658.8100000000001" y="87" width="92.37" height="130" as="geometry" />
        </mxCell>
        <mxCell id="TcjnYduFdrtGoyZPX38t-22" value="https://api.p-dealer.com" style="edgeLabel;html=1;align=left;verticalAlign=middle;resizable=0;points=[];" vertex="1" connectable="0" parent="1">
          <mxGeometry x="159.99827586206908" y="554.9955172413793" as="geometry" />
        </mxCell>
        <mxCell id="TcjnYduFdrtGoyZPX38t-26" value="Requests for p-dealer.com" style="endArrow=classic;html=1;rounded=0;" edge="1" parent="1">
          <mxGeometry width="50" height="50" relative="1" as="geometry">
            <mxPoint x="484.65" y="520" as="sourcePoint" />
            <mxPoint x="484.65" y="400" as="targetPoint" />
          </mxGeometry>
        </mxCell>
        <mxCell id="TcjnYduFdrtGoyZPX38t-27" value="Requests for api.p-dealer.com" style="endArrow=classic;html=1;rounded=0;" edge="1" parent="1">
          <mxGeometry width="50" height="50" relative="1" as="geometry">
            <mxPoint x="704.66" y="520" as="sourcePoint" />
            <mxPoint x="704.66" y="399.9999999999999" as="targetPoint" />
          </mxGeometry>
        </mxCell>
      </root>
    </mxGraphModel>
  </diagram>
</mxfile>
